<svg width="25" height="11" viewBox="0 0 25 11" fill="none" xmlns="http://www.w3.org/2000/svg">
<path d="M24.7957 4.71098L20.332 0.247227C20.0596 -0.0251175 19.6179 -0.0251175 19.3456 0.247227C19.0732 0.519628 19.0732 0.961205 19.3456 1.23361L22.6187 4.50671H0.697461C0.312295 4.50671 0 4.819 0 5.20417C0 5.58928 0.312295 5.90163 0.697461 5.90163H22.6187L19.3457 9.17474C19.0733 9.44714 19.0733 9.88871 19.3457 10.1611C19.4819 10.2972 19.6604 10.3654 19.8389 10.3654C20.0174 10.3654 20.1959 10.2972 20.3321 10.1611L24.7957 5.69736C25.0681 5.42496 25.0681 4.98338 24.7957 4.71098Z" fill="#428CC3"/>
</svg>
