<svg width="25" height="11" viewBox="0 0 25 11" fill="none" xmlns="http://www.w3.org/2000/svg">
<path d="M0.204273 4.71098L4.66803 0.247227C4.94037 -0.0251175 5.38206 -0.0251175 5.65441 0.247227C5.92681 0.519628 5.92681 0.961205 5.65441 1.23361L2.3813 4.50671H24.3025C24.6877 4.50671 25 4.819 25 5.20417C25 5.58928 24.6877 5.90163 24.3025 5.90163H2.3813L5.65429 9.17474C5.92669 9.44714 5.92669 9.88871 5.65429 10.1611C5.51815 10.2972 5.3396 10.3654 5.16111 10.3654C4.98261 10.3654 4.80412 10.2972 4.66792 10.1611L0.204273 5.69736C-0.0681267 5.42496 -0.0681267 4.98338 0.204273 4.71098Z" fill="#428CC3"/>
</svg>
