<svg width="35" height="35" viewBox="0 0 35 35" fill="none" xmlns="http://www.w3.org/2000/svg">
<path d="M0.08574 1.43546L4.57248 11.7222C4.57583 11.7299 4.58007 11.7369 4.58363 11.7446C4.63469 11.8544 4.69669 11.9412 4.77032 12.0186C4.7762 12.0247 4.78125 12.0313 4.78727 12.0374L10.2807 17.5308C7.1851 20.4 3.75703 24.2141 1.65718 27.8413C-0.154675 30.9708 -0.48177 33.1492 0.684845 34.3158C1.85152 35.4825 4.02992 35.1552 7.15933 33.3434C10.7845 31.2446 14.5981 27.8182 17.4698 24.7198C17.7438 24.9938 26.2473 33.4972 26.2473 33.4972C28.2507 35.5008 31.4936 35.501 33.4972 33.4972C35.5008 31.4937 35.501 28.251 33.4972 26.2472C33.1787 25.9287 24.038 16.788 23.6947 16.4447C24.2822 15.3739 24.6916 14.4204 24.913 13.6027C24.9487 13.4708 24.9781 13.343 25.0042 13.2174C26.791 13.8159 28.8444 13.406 30.2649 11.9855C31.6919 10.5584 32.6176 8.73517 32.9419 6.7129C33.2656 4.69454 32.9591 2.67275 32.0557 0.866024C31.9174 0.589443 31.6981 0.00148802 30.9901 0.00148808C30.4236 0.00148813 29.9646 0.460999 29.9646 1.02687C29.9646 2.13736 29.1 3.08892 28.0373 3.14812C26.3593 3.24164 25.2103 3.16822 23.8348 4.06844C21.8433 5.37259 21.0549 7.82135 21.7827 9.9953C21.6574 10.0213 21.5293 10.0516 21.3978 10.0872C20.58 10.3087 19.6266 10.718 18.5558 11.3056L12.0373 4.78703C11.9504 4.70014 11.8476 4.63124 11.7444 4.58325C11.7368 4.57976 11.7299 4.57559 11.7222 4.57224L1.43542 0.0855017C1.04824 -0.0833444 0.598161 0.00265422 0.300458 0.300288C0.00241551 0.598678 -0.0827628 1.04896 0.08574 1.43546ZM6.13203 31.5688C3.68409 32.986 2.35649 33.0873 2.13488 32.8658C1.99877 32.7296 1.82008 31.6524 3.43185 28.8686C4.10915 27.6987 4.98155 26.4365 6.00515 25.1359L9.86477 28.9955C8.56417 30.0191 7.30179 30.8915 6.13203 31.5688ZM11.4543 27.6851L7.31546 23.5462C7.75323 23.0378 8.21096 22.5269 8.68585 22.0166L12.9839 26.3147C12.4736 26.7896 11.9628 27.2473 11.4543 27.6851ZM29.8806 25.5305L32.0474 27.6973C33.2496 28.8994 33.2497 30.8451 32.0474 32.0474C30.8452 33.2495 28.8997 33.2496 27.6974 32.0474L25.5305 29.8805L29.8806 25.5305ZM26.9747 22.6364L28.4247 24.0863L24.0806 28.4305L22.6306 26.9805L26.9747 22.6364ZM25.5305 21.1805L21.1805 25.5306L18.8397 23.1897C20.2892 21.512 21.5801 19.8217 22.6038 18.2539L25.5305 21.1805ZM24.958 5.78425C25.8008 5.23273 26.4117 5.29268 28.1514 5.19574C29.1985 5.13743 30.1749 4.66822 30.902 3.87423C31.3051 6.26085 30.5596 8.79102 28.8149 10.5357C27.6156 11.735 25.6642 11.7351 24.4649 10.5357C23.0951 9.16583 23.3145 6.86056 24.958 5.78425ZM19.235 13.2754C21.8016 11.8113 22.8653 11.8758 23.0128 11.9834C23.0129 11.9835 23.0131 11.9837 23.0133 11.9839C23.5856 12.7619 21.0875 18.263 14.4599 24.8906L10.1099 20.5406C12.8147 17.8358 15.914 15.236 19.235 13.2754ZM16.7468 12.3967C15.1789 13.4205 13.4886 14.7112 11.8109 16.1608L6.96225 11.3122L11.3123 6.96214L16.7468 12.3967ZM9.52379 5.85076L5.8508 9.52376L3.00946 3.00942L9.52379 5.85076Z" fill="url(#paint0_linear_128_845)"/>
<defs>
<linearGradient id="paint0_linear_128_845" x1="35.2893" y1="35" x2="-4.54105" y2="28.6968" gradientUnits="userSpaceOnUse">
<stop stop-color="#67ADD7"/>
<stop offset="1" stop-color="#67ADD7"/>
</linearGradient>
</defs>
</svg>
