<svg width="14" height="11" viewBox="0 0 14 11" fill="none" xmlns="http://www.w3.org/2000/svg">
<path fill-rule="evenodd" clip-rule="evenodd" d="M2.94526 4.5039C2.05466 3.88674 1.52082 3.51558 1.34372 3.39061C1.02086 3.17189 0.71608 2.87108 0.429692 2.48826C0.143276 2.10547 0 1.74991 0 1.42179C0 1.01558 0.108059 0.677033 0.324178 0.406187C0.540323 0.135396 0.848931 0 1.24995 0H12.7499C13.0884 0 13.3814 0.122343 13.6288 0.367166C13.8762 0.611934 14 0.906231 14 1.25003C14 1.66144 13.8724 2.05468 13.6171 2.42954C13.3619 2.80456 13.0443 3.12493 12.6641 3.39044C10.7058 4.74987 9.48696 5.59626 9.00788 5.92952C8.95581 5.96605 8.84504 6.04535 8.67582 6.16786C8.50649 6.29034 8.36595 6.38931 8.25395 6.46481C8.14196 6.54025 8.00656 6.62483 7.84774 6.71866C7.689 6.81222 7.5391 6.88273 7.39854 6.92936C7.25789 6.97635 7.12764 6.99966 7.00787 6.99966H6.99999H6.99213C6.87236 6.99966 6.74217 6.97637 6.60152 6.92936C6.46089 6.88273 6.31113 6.8123 6.15226 6.71866C5.99333 6.62494 5.85794 6.54028 5.74594 6.46481C5.63402 6.38931 5.49337 6.29034 5.3241 6.16786C5.15485 6.04546 5.04422 5.96605 4.99215 5.92952C4.51818 5.59626 3.8359 5.12106 2.94526 4.5039ZM9.32814 6.92145C10.2134 6.28076 11.5105 5.38225 13.2186 4.2261C13.5157 4.02304 13.776 3.79633 14 3.54644V9.74938C14 10.0934 13.8777 10.3874 13.6328 10.6323C13.388 10.8771 13.0937 10.9995 12.7501 10.9995H1.25003C0.906258 10.9995 0.611934 10.8771 0.367166 10.6323C0.122343 10.3875 0 10.0933 0 9.74938V3.54644C0.229171 3.80161 0.492191 4.02832 0.789141 4.2261C2.67453 5.5073 3.96877 6.40587 4.67194 6.92145C4.96878 7.14012 5.20969 7.31081 5.39453 7.43313C5.57943 7.55553 5.82556 7.68052 6.1328 7.80807C6.44004 7.9358 6.72654 7.99947 6.99216 7.99947H7.00001H7.00798C7.27365 7.99947 7.55998 7.9358 7.86722 7.80807C8.17457 7.68052 8.42054 7.55553 8.6055 7.43313C8.79045 7.31081 9.03127 7.14012 9.32814 6.92145Z" fill="#E8F0F6"/>
</svg>
