<svg width="50" height="50" viewBox="0 0 50 50" fill="none" xmlns="http://www.w3.org/2000/svg">
<rect width="50" height="50" rx="25" fill="#132434"/>
<path d="M31.4916 26.6301C32.0886 27.3169 32.7188 27.963 33.2544 28.719C33.4909 29.055 33.7149 29.4016 33.8862 29.7915C34.129 30.3457 33.9091 30.9556 33.4873 30.9887L30.865 30.9873C30.1886 31.0534 29.6491 30.7327 29.1954 30.1879C28.8324 29.7523 28.4962 29.2886 28.1471 28.8383C28.0039 28.6542 27.8541 28.481 27.6752 28.3441C27.3172 28.0704 27.0065 28.1542 26.8019 28.594C26.5935 29.0414 26.5463 29.5367 26.5258 30.0353C26.4977 30.7627 26.3111 30.954 25.6908 30.9873C24.3653 31.0609 23.1072 30.8246 21.9385 30.0369C20.9082 29.3424 20.1092 28.362 19.4138 27.2521C18.0598 25.0909 17.0228 22.716 16.0909 20.2746C15.8811 19.7246 16.0345 19.4293 16.5497 19.4189C17.4052 19.3993 18.2605 19.4007 19.117 19.4175C19.4647 19.4235 19.6949 19.6584 19.8291 20.0453C20.292 21.386 20.8583 22.6615 21.5691 23.8438C21.7585 24.1586 21.9515 24.4734 22.2264 24.6949C22.5305 24.9402 22.762 24.8589 22.9051 24.4598C22.9959 24.2068 23.0356 23.9343 23.0561 23.6632C23.1238 22.7308 23.1328 21.8 23.0139 20.8709C22.9409 20.2911 22.6637 19.9157 22.1725 19.8059C21.9219 19.75 21.9592 19.6401 22.0805 19.4716C22.2913 19.1809 22.4896 19 22.8847 19H25.8483C26.3149 19.1085 26.4185 19.3554 26.4824 19.9084L26.4849 23.7865C26.4798 24.0006 26.5757 24.6359 26.903 24.7776C27.165 24.8785 27.3377 24.6316 27.4949 24.4359C28.2045 23.5487 28.7109 22.5002 29.1633 21.4146C29.3641 20.9372 29.5367 20.4414 29.704 19.9461C29.828 19.5785 30.0225 19.3976 30.374 19.4056L33.2263 19.4086C33.3108 19.4086 33.3964 19.4101 33.4783 19.4266C33.959 19.5231 34.0907 19.7667 33.9422 20.3196C33.7083 21.187 33.2532 21.9099 32.8083 22.6362C32.3326 23.4115 31.8239 24.1603 31.3522 24.9403C30.9188 25.6525 30.9532 26.0115 31.4916 26.6301Z" fill="white"/>
</svg>
