<svg width="50" height="50" viewBox="0 0 50 50" fill="none" xmlns="http://www.w3.org/2000/svg">
<rect width="50" height="50" rx="25" fill="#67ADD7"/>
<path fill-rule="evenodd" clip-rule="evenodd" d="M28.964 17H21.0362C18.8105 17 17 18.8107 17 21.0362V28.964C17 31.1898 18.8105 33 21.0362 33H28.964C31.1898 33 33 31.1898 33 28.964V21.0362C33 18.8107 31.1898 17 28.964 17ZM31.259 28.964C31.259 30.2296 30.2293 31.2592 28.964 31.2592H21.0362C19.7709 31.2592 18.7413 30.2296 18.7413 28.964V21.0362C18.7413 19.7709 19.7709 18.7415 21.0362 18.7415H28.964C30.2293 18.7415 31.259 19.7709 31.259 21.0362V28.964ZM29.2532 21.7319C28.7154 21.7319 28.2778 21.2946 28.2778 20.7568C28.2778 20.2193 28.7154 19.782 29.2532 19.782C29.7909 19.782 30.2282 20.2193 30.2282 20.7568C30.2282 21.2946 29.7909 21.7319 29.2532 21.7319ZM20.8793 24.9999C20.8793 22.7278 22.728 20.8793 24.9999 20.8793C27.2722 20.8793 29.1209 22.728 29.1209 24.9999C29.1209 27.272 27.2722 29.1207 24.9999 29.1207C22.728 29.1207 20.8793 27.272 20.8793 24.9999ZM22.6204 24.9999C22.6204 26.3121 23.6885 27.3799 24.9999 27.3799C26.3121 27.3799 27.3794 26.3121 27.3794 24.9999C27.3794 23.6882 26.3121 22.6209 24.9999 22.6209C23.6885 22.6209 22.6204 23.6882 22.6204 24.9999Z" fill="white"/>
</svg>
