<svg width="18" height="14" viewBox="0 0 18 14" fill="none" xmlns="http://www.w3.org/2000/svg">
<path fill-rule="evenodd" clip-rule="evenodd" d="M16.5938 7.41797V2.96149L10.4852 6.75995C10.0271 7.04475 9.51356 7.18717 9 7.18717C8.48644 7.18717 7.97287 7.04475 7.51482 6.75995L1.40625 2.96149V7.41797V10.9336C1.40625 11.709 2.03709 12.3398 2.8125 12.3398H15.1875C15.9629 12.3398 16.5938 11.709 16.5938 10.9336V7.41797ZM18 10.9336C18 12.4844 16.7383 13.7461 15.1875 13.7461H2.8125C1.26169 13.7461 0 12.4844 0 10.9336V7.41797V2.8125C0 1.26169 1.26169 0 2.8125 0H15.1875C16.7383 0 18 1.26169 18 2.8125V7.41797V10.9336ZM8.25743 5.56573C8.71545 5.85056 9.28455 5.85053 9.74257 5.56573L16.007 1.67038C15.9782 1.64961 15.9485 1.6299 15.9181 1.61133C15.705 1.48127 15.4548 1.40625 15.1875 1.40625H2.8125C2.65731 1.40625 2.50792 1.43152 2.36822 1.47815C2.26725 1.51186 2.17133 1.55673 2.08195 1.61129C2.05151 1.62987 2.02184 1.64958 1.99297 1.67034L8.25743 5.56573Z" fill="url(#paint0_linear_366_111)"/>
<defs>
<linearGradient id="paint0_linear_366_111" x1="-0.14876" y1="-7.24546e-07" x2="19.984" y2="4.172" gradientUnits="userSpaceOnUse">
<stop stop-color="#67ADD7"/>
<stop offset="1" stop-color="#67ADD7"/>
</linearGradient>
</defs>
</svg>
