<svg width="136" height="36" viewBox="0 0 136 36" fill="none" xmlns="http://www.w3.org/2000/svg">
<path fill-rule="evenodd" clip-rule="evenodd" d="M2.72091 26.5723C2.87377 26.4204 2.87377 26.1773 2.72091 26.0253C1.46745 24.7794 0.7643 23.1079 0.7643 21.315C0.7643 17.6378 3.79093 14.6293 7.49014 14.6293C8.80473 14.6293 10.4862 15.1459 11.6479 15.9056C12.3817 16.3919 13.0542 16.9085 13.6657 17.4251L11.5256 21.4669C10.425 23.3511 8.98816 23.8677 7.79586 23.8677C6.35897 23.8677 5.19724 22.7129 5.19724 21.2846C5.19724 19.8563 6.35897 18.7015 7.79586 18.7015C8.04043 18.7015 8.28501 18.7622 8.52959 18.823C9.04931 18.9446 9.32446 18.2152 8.74359 18.0937C8.43787 18.0329 8.13215 17.9417 7.79586 17.9417C5.93097 17.9417 4.43294 19.4308 4.43294 21.2846C4.43294 23.1383 5.93097 24.6274 7.79586 24.6274C9.84418 24.6274 13.4822 23.9892 15.8974 19.6739C16.8757 20.7983 17.7623 21.9531 18.5878 23.1383L16.5394 28.7908C15.7446 30.7965 14.7357 32.7414 12.6568 34.2001C12.2594 34.4736 11.3728 34.9295 10.3945 35.2637C9.90533 35.4157 10.0276 36.1754 10.6696 35.9627C15.6529 34.2001 19.0463 30.8269 20.6972 26.2077C22.929 29.4897 26.1391 33.6531 32.5897 33.6531C38.0927 33.6531 42.9231 29.2162 42.9231 23.7461C42.9231 17.3339 37.8787 13.8695 33.1095 13.8695C29.1045 13.8695 26.1696 16.9085 26.1696 20.4944C26.1696 23.9892 28.8294 26.6331 32.3452 26.6331C32.926 26.6331 33.4152 26.1469 33.4152 25.5695C33.4152 24.9617 32.926 24.5059 32.3452 24.5059C31.7337 24.5059 31.2751 24.9921 31.2751 25.5695C31.2751 25.6607 31.2752 25.7214 31.3057 25.8126C28.7377 25.3568 26.9339 23.2295 26.9339 20.5248C26.9339 17.3339 29.6854 14.6293 33.1095 14.6293C37.3895 14.6293 39.8353 18.9446 39.8353 23.0168C39.8353 28.0006 35.4024 32.0424 30.358 32.0424C25.9862 32.0424 22.8984 28.031 21.003 25.3264L26.7811 9.25033C27.0562 8.4602 27.3314 7.67007 27.6677 6.87995C29.93 6.60644 32.4369 6.30255 32.5897 6.30255C33.0177 6.27216 32.9566 5.63398 32.5286 5.66437C32.3757 5.69476 30.1134 5.90748 27.9734 6.1506C28.8905 4.1145 30.1746 2.19997 32.712 0.953996C32.6509 1.5314 33.0789 2.07841 33.6598 2.13919C34.2406 2.19997 34.7909 1.77451 34.8521 1.19711C34.9132 0.619712 34.4852 0.0727009 33.9043 0.0119219C33.7515 -0.0184675 33.5986 0.0119219 33.4458 0.0727009C29.716 1.37945 26.9034 3.56749 25.0385 6.48488C24.3965 6.54566 23.9684 6.60644 23.9684 6.60644C21.9201 6.81917 18.4655 7.94358 16.2643 12.5932L14.002 16.8477C13.3905 16.3311 12.7485 15.8448 12.0454 15.3586C10.7613 14.5077 8.92702 13.9607 7.49014 13.9607C3.36292 13.9607 0 17.3035 0 21.4061C0 23.3814 0.7643 25.2352 2.17061 26.6331C2.32347 26.7243 2.56805 26.7243 2.72091 26.5723ZM19.8106 12.1373C21.3392 9.0376 22.8984 7.42696 24.0602 7.3054C24.0602 7.3054 24.2436 7.27501 24.5799 7.24462C24.0907 8.12592 23.6627 9.0376 23.3264 10.0101L18.8935 22.257C18.068 21.1326 17.212 20.0082 16.2643 18.9446L19.8106 12.1373Z" fill="white"/>
<path fill-rule="evenodd" clip-rule="evenodd" d="M54.8257 4.84607H54.3514L49.8457 15.5641H51.1331L52.522 12.2873H56.689L58.078 15.5641H59.3992L54.8257 4.84607ZM52.9963 11.1609L54.6225 7.13305L56.2486 11.1609H52.9963ZM90.77 4.84607L86.2304 15.5641H87.5177L88.9067 12.2873H93.0737L94.4627 15.5641H95.7839L91.2104 4.84607H90.77ZM89.381 11.1609L91.0071 7.13305L92.6333 11.1609H89.381ZM67.0895 15.5641H60.8898V5.01674H62.1433V14.4377H67.1233V15.5641H67.0895ZM75.4573 15.5641H68.5801V5.01674H75.2879V6.14316H69.7997V9.62483H73.323V10.7513H69.7997V14.4377H75.4573V15.5641ZM125.935 15.5641H119.024V5.01674H125.732V6.14316H120.244V9.62483H123.767V10.7513H120.244V14.4377H125.901V15.5641H125.935ZM85.1463 15.5641H83.7234L80.9116 11.2291L78.0658 15.5641H76.6091L80.2001 10.171L76.8462 5.01674H78.2691L80.8777 9.11282L83.4524 5.01674H84.8753L81.5891 10.171L85.1463 15.5641ZM104.389 12.97V5.01674H105.642V15.7348H105.202L98.528 7.64506V15.5641H97.2745V4.84607H97.7149L104.389 12.97ZM108.251 5.01674V15.5641H111.368C113.129 15.5641 114.484 15.0521 115.535 14.0622C116.551 13.0724 117.059 11.8094 117.059 10.2734C117.059 8.73735 116.551 7.47439 115.535 6.4845C114.518 5.49462 113.129 5.01674 111.368 5.01674H108.251ZM114.586 7.30372C115.365 8.05466 115.772 9.07868 115.772 10.3075C115.772 11.5363 115.365 12.5262 114.586 13.3113C113.807 14.0964 112.723 14.506 111.368 14.506H109.504V6.21143L111.334 6.1773C112.723 6.14316 113.807 6.51863 114.586 7.30372ZM128.781 11.1267H131.017L134.269 15.5641H135.692L132.372 10.9902C133.049 10.7854 133.591 10.444 133.998 9.93204C134.405 9.42003 134.574 8.80561 134.574 8.0888C134.574 7.20132 134.269 6.45037 133.659 5.87009C133.049 5.28981 132.236 5.01674 131.22 5.01674H127.527V15.5641H128.781V11.1267ZM128.781 6.14316H131.186C131.864 6.14316 132.372 6.31383 132.744 6.68931C133.117 7.06478 133.287 7.50852 133.287 8.0888C133.287 8.66908 133.083 9.14696 132.744 9.4883C132.372 9.82964 131.864 10.0003 131.186 10.0003H128.781V6.14316ZM97.5117 20.8891L92.9721 31.6071H94.2594L95.6484 28.3303H99.8153L101.204 31.6071H102.526L97.9521 20.8891H97.5117ZM96.1227 27.238L97.7488 23.2102L99.3749 27.238H96.1227ZM64.6841 20.8891C63.1596 20.8891 61.8723 21.4011 60.8221 22.4592C59.7719 23.5174 59.2637 24.8145 59.2637 26.3505C59.2637 27.8865 59.7719 29.1836 60.8221 30.2418C61.8723 31.2999 63.1596 31.8119 64.6841 31.8119C66.2086 31.8119 67.4621 31.2999 68.5462 30.2418C69.5964 29.1836 70.1385 27.8865 70.1385 26.3505C70.1385 24.8145 69.6303 23.5174 68.5462 22.4592C67.4621 21.4352 66.1748 20.8891 64.6841 20.8891ZM67.6654 29.4226C66.8862 30.2418 65.9037 30.6514 64.6841 30.6514C63.4984 30.6514 62.4821 30.2418 61.7029 29.4226C60.9237 28.6033 60.5172 27.5793 60.5172 26.3505C60.5172 25.1217 60.9237 24.0977 61.7029 23.2784C62.4821 22.4592 63.4645 22.0496 64.6841 22.0496C65.8699 22.0496 66.8523 22.4592 67.6654 23.2784C68.4446 24.0977 68.8511 25.1217 68.8511 26.3164C68.8511 27.5793 68.4446 28.6033 67.6654 29.4226ZM76.8801 26.3164H81.6908V29.1154C81.2165 29.9346 80.5728 30.6172 79.7259 31.0951C78.8789 31.6071 77.9303 31.8461 76.914 31.8461C75.3895 31.8461 74.1022 31.3341 73.0519 30.2759C72.0017 29.2177 71.4936 27.9207 71.4936 26.3846C71.4936 24.8486 72.0017 23.5515 73.0519 22.4933C74.1022 21.4352 75.4911 20.9232 76.914 20.9232C77.6593 20.9232 78.6418 21.1621 79.3532 21.5376C80.0985 21.9131 80.7083 22.4592 81.1826 23.1419L80.234 23.8928C79.3871 22.7323 78.2691 22.152 76.914 22.152C75.6944 22.152 74.712 22.5616 73.9328 23.3808C73.1536 24.2001 72.747 25.2241 72.747 26.4529C72.747 27.6817 73.1536 28.7057 73.9328 29.5591C74.712 30.3783 75.7283 30.822 76.9479 30.822C77.6932 30.822 78.4046 30.6514 78.9805 30.31C79.5903 29.9687 80.0646 29.525 80.4373 28.9447V27.511H76.8801V26.3164ZM86.9079 21.0939H83.7912V31.6413H86.9079C88.6696 31.6413 90.0247 31.1293 91.0749 30.1394C92.0912 29.1495 92.5994 27.8865 92.5994 26.3505C92.5994 24.8145 92.0912 23.5515 91.0749 22.5616C90.0247 21.5717 88.6357 21.0939 86.9079 21.0939ZM90.1263 29.3884C89.3471 30.1735 88.263 30.5831 86.8741 30.5831H85.0108V22.2544L86.8402 22.2203C88.2292 22.2203 89.3133 22.5958 90.0924 23.3808C90.8716 24.1318 91.2782 25.1558 91.2782 26.3846C91.312 27.5793 90.9394 28.6033 90.1263 29.3884ZM111.131 21.0939H112.384V31.8119H111.944L105.27 23.7222V31.6413H104.05V20.8891H104.49L111.164 29.0129V21.0939H111.131ZM119.769 20.8891C118.245 20.8891 116.957 21.4011 115.907 22.4592C114.857 23.5174 114.349 24.8145 114.349 26.3505C114.349 27.8865 114.857 29.1836 115.907 30.2418C116.957 31.2999 118.245 31.8119 119.769 31.8119C121.26 31.8119 122.547 31.2999 123.631 30.2418C124.682 29.1836 125.224 27.8865 125.224 26.3505C125.224 24.8145 124.715 23.5174 123.631 22.4592C122.581 21.4352 121.294 20.8891 119.769 20.8891ZM122.751 29.4226C121.971 30.2418 120.989 30.6514 119.769 30.6514C118.584 30.6514 117.567 30.2418 116.788 29.4226C116.009 28.6033 115.602 27.5793 115.602 26.3505C115.602 25.1217 116.009 24.0977 116.788 23.2784C117.567 22.4592 118.55 22.0496 119.769 22.0496C120.955 22.0496 121.938 22.4592 122.751 23.2784C123.53 24.0977 123.936 25.1217 123.936 26.3164C123.936 27.5793 123.564 28.6033 122.751 29.4226ZM133.761 21.0939H135.116L130.576 31.8119H130.102L125.562 21.0939H126.918L130.339 29.3543L133.761 21.0939ZM58.0441 24.0635C58.0441 23.176 57.4343 21.0939 54.7241 21.0939H50.4216V31.6413H54.7241C57.4343 31.6413 58.0441 29.5591 58.0441 28.6716C58.0441 28.0913 57.6376 26.9308 56.6212 26.3505C57.6376 25.8043 58.0441 24.6438 58.0441 24.0635ZM56.7906 28.6716C56.7906 29.2177 56.3502 30.5148 54.6225 30.5148H51.6751V26.8625H54.6225C56.2486 26.8284 56.7906 28.1255 56.7906 28.6716ZM54.6225 25.8043H51.6751V22.1861H53.911H54.6225C56.3841 22.1861 56.7906 23.415 56.7906 23.9611C56.7906 24.5414 56.2486 25.8043 54.6225 25.8043Z" fill="white"/>
</svg>
