<svg width="36" height="30" viewBox="0 0 36 30" fill="none" xmlns="http://www.w3.org/2000/svg">
<path fill-rule="evenodd" clip-rule="evenodd" d="M34.9453 0.000248632C27.8354 0.000248632 21.8016 4.6731 19.7786 11.096C19.556 10.9441 19.313 10.8201 19.0547 10.7285V7.88111C19.0547 5.37378 20.4478 3.11963 22.6904 1.9983C23.2114 1.7378 23.4226 1.10425 23.162 0.583256C22.9016 0.0622603 22.2682 -0.148921 21.7471 0.111577C20.2124 0.878911 18.8824 2.11109 18 3.73511C17.1179 2.11182 15.7881 0.879155 14.2529 0.111577C13.7319 -0.148921 13.0984 0.0622603 12.8379 0.583256C12.5774 1.10425 12.7886 1.7378 13.3095 1.9983C15.5522 3.11963 16.9453 5.37378 16.9453 7.88111V10.7285C16.8137 10.7754 16.6861 10.8303 16.563 10.8931C16.4447 10.9536 16.3306 11.0215 16.2214 11.096C14.1984 4.6731 8.16449 0.000248632 1.05469 0.000248632C0.472229 0.000248632 0 0.472417 0 1.05494C0 5.06568 1.53641 8.88306 4.33835 11.8645C4.32153 11.999 4.30902 12.134 4.30081 12.2695C4.293 12.3984 4.28906 12.5273 4.28906 12.6565C4.28906 14.8552 5.41644 16.7954 7.12329 17.9299C5.41644 19.0647 4.28906 21.0046 4.28906 23.2034C4.28906 26.6929 7.12787 29.5315 10.6172 29.5315C13.0272 29.5315 15.1267 28.177 16.195 26.1897C16.636 26.9287 17.2218 27.4221 18 27.4221C18.7782 27.4221 19.3639 26.9287 19.8049 26.1897C20.8733 28.177 22.9727 29.5315 25.3828 29.5315C28.8721 29.5315 31.7109 26.6929 31.7109 23.2034C31.7109 21.0046 30.5836 19.0647 28.8767 17.9299C30.5836 16.7954 31.7109 14.8552 31.7109 12.6565C31.7109 12.523 31.7068 12.3897 31.6984 12.2566C31.6902 12.1255 31.6779 11.9946 31.6617 11.8645C34.4636 8.88306 36 5.06592 36 1.05494C36 0.472417 35.5278 0.000248632 34.9453 0.000248632ZM6.39844 12.6565C6.39844 12.3477 6.43182 12.0398 6.49771 11.7415C6.57547 11.3892 6.4679 11.0215 6.21231 10.7669C3.83499 8.39771 2.41736 5.37281 2.15408 2.15284C9.24097 2.71216 14.8359 8.62867 14.8359 15.8206V16.8752H10.6172C8.29095 16.8752 6.39844 14.9827 6.39844 12.6565ZM14.8359 23.2034C14.8359 25.5295 12.9434 27.4221 10.6172 27.4221C8.29095 27.4221 6.39844 25.5295 6.39844 23.2034C6.39844 20.8772 8.29095 18.9846 10.6172 18.9846H14.8359V23.2034ZM18 25.1231C17.2339 23.8413 17.0419 21.096 16.9742 20.1277L16.974 20.1248C16.9608 19.937 16.9524 19.8162 16.9453 19.7874V13.7112C16.9453 13.1296 17.4185 12.6565 18 12.6565C18.5815 12.6565 19.0547 13.1296 19.0547 13.7112V19.7874C19.0443 19.8298 19.0331 19.9832 19.0163 20.2148C18.9408 21.2534 18.7508 23.8667 18 25.1231ZM29.6016 23.2034C29.6016 25.5295 27.709 27.4221 25.3828 27.4221C23.0566 27.4221 21.1641 25.5295 21.1641 23.2034V18.9846H25.3828C27.709 18.9846 29.6016 20.8772 29.6016 23.2034ZM29.7876 10.7669C29.532 11.0215 29.4244 11.3892 29.5022 11.7415C29.5681 12.0398 29.6015 12.3477 29.6015 12.6567C29.6015 14.9829 27.709 16.8755 25.3828 16.8755H21.164V15.8208C21.164 8.62867 26.759 2.71216 33.8458 2.15308C33.5826 5.37281 32.1649 8.39771 29.7876 10.7669ZM11.6719 23.2031C12.2544 23.2031 12.7266 22.731 12.7266 22.1484C12.7266 21.5659 12.2544 21.0938 11.6719 21.0938C11.0894 21.0938 10.6172 21.5659 10.6172 22.1484C10.6172 22.731 11.0894 23.2031 11.6719 23.2031ZM25.3828 22.1484C25.3828 22.731 24.9106 23.2031 24.3281 23.2031C23.7456 23.2031 23.2734 22.731 23.2734 22.1484C23.2734 21.5659 23.7456 21.0938 24.3281 21.0938C24.9106 21.0938 25.3828 21.5659 25.3828 22.1484Z" fill="url(#paint0_linear_128_875)"/>
<defs>
<linearGradient id="paint0_linear_128_875" x1="-0.29752" y1="-1.55658e-06" x2="40.1903" y2="7.81069" gradientUnits="userSpaceOnUse">
<stop stop-color="#67ADD7"/>
<stop offset="1" stop-color="#67ADD7"/>
</linearGradient>
</defs>
</svg>
