<svg width="16" height="15" viewBox="0 0 16 15" fill="none" xmlns="http://www.w3.org/2000/svg">
<g opacity="0.7">
<path fill-rule="evenodd" clip-rule="evenodd" d="M1 7.86375C1 11.7235 4.14027 14.8638 8 14.8638C11.8597 14.8638 15 11.7235 15 7.86375C15 5.85063 14.1315 3.9331 12.6176 2.60312C12.3404 2.35953 11.9183 2.38694 11.6747 2.6641C11.4311 2.94127 11.4585 3.36335 11.7357 3.60694C12.9612 4.68339 13.6639 6.23503 13.6639 7.86375C13.6639 10.9869 11.1231 13.5276 8 13.5276C4.87686 13.5276 2.33614 10.9869 2.33614 7.86375C2.33614 6.23469 3.03881 4.68339 4.26429 3.60694C4.54145 3.36335 4.56886 2.94127 4.32527 2.6641C4.08168 2.38694 3.6596 2.35953 3.38244 2.60312C1.86849 3.9331 1 5.85063 1 7.86375ZM7.33179 7.16465C7.33179 7.53363 7.63088 7.83272 7.99986 7.83272C8.36884 7.83272 8.66793 7.53363 8.66793 7.16465L8.66793 1.66798C8.66793 1.299 8.36884 0.999912 7.99986 0.999912C7.63088 0.999912 7.33179 1.299 7.33179 1.66798L7.33179 7.16465Z" fill="#4E5B67"/>
<path d="M12.6176 2.60312L12.5515 2.67823L12.5516 2.67825L12.6176 2.60312ZM11.6747 2.6641L11.7498 2.73012L11.7498 2.73012L11.6747 2.6641ZM11.7357 3.60694L11.6697 3.68205L11.6697 3.68207L11.7357 3.60694ZM8 13.5276L8 13.4276L8 13.5276ZM2.33614 7.86375L2.23614 7.86375L2.33614 7.86375ZM4.26429 3.60694L4.33029 3.68207L4.33031 3.68205L4.26429 3.60694ZM4.32527 2.6641L4.40039 2.59809L4.32527 2.6641ZM3.38244 2.60312L3.44844 2.67825L3.44845 2.67823L3.38244 2.60312ZM7.33179 7.16465L7.23179 7.16465L7.33179 7.16465ZM7.33179 1.66798L7.43179 1.66798L7.33179 1.66798ZM8 14.7638C4.1955 14.7638 1.1 11.6683 1.1 7.86375L0.9 7.86375C0.9 11.7787 4.08504 14.9638 8 14.9638L8 14.7638ZM14.9 7.86375C14.9 11.6683 11.8045 14.7638 8 14.7638L8 14.9638C11.915 14.9638 15.1 11.7787 15.1 7.86375L14.9 7.86375ZM12.5516 2.67825C14.0439 3.98926 14.9 5.87944 14.9 7.86375L15.1 7.86375C15.1 5.82183 14.2191 3.87693 12.6836 2.52799L12.5516 2.67825ZM11.7498 2.73012C11.957 2.4944 12.3159 2.47114 12.5515 2.67823L12.6836 2.52801C12.3649 2.24792 11.8796 2.27948 11.5996 2.59809L11.7498 2.73012ZM11.8017 3.53183C11.566 3.32466 11.5427 2.96576 11.7498 2.73012L11.5996 2.59809C11.3195 2.91678 11.3511 3.40204 11.6697 3.68205L11.8017 3.53183ZM13.7639 7.86375C13.7639 6.20622 13.0488 4.62722 11.8017 3.53181L11.6697 3.68207C12.8736 4.73956 13.5639 6.26384 13.5639 7.86375L13.7639 7.86375ZM8 13.6276C11.1784 13.6276 13.7639 11.0421 13.7639 7.86375L13.5639 7.86375C13.5639 10.9317 11.0679 13.4276 8 13.4276L8 13.6276ZM2.23614 7.86375C2.23614 11.0421 4.82163 13.6276 8 13.6276L8 13.4276C4.93209 13.4276 2.43614 10.9317 2.43614 7.86375L2.23614 7.86375ZM4.1983 3.53181C2.95123 4.62722 2.23614 6.20588 2.23614 7.86375L2.43614 7.86375C2.43614 6.2635 3.12639 4.73956 4.33029 3.68207L4.1983 3.53181ZM4.25016 2.73012C4.45725 2.96576 4.434 3.32466 4.19828 3.53183L4.33031 3.68205C4.64891 3.40204 4.68047 2.91678 4.40039 2.59809L4.25016 2.73012ZM3.44845 2.67823C3.68409 2.47114 4.04299 2.4944 4.25016 2.73012L4.40039 2.59809C4.12038 2.27948 3.63511 2.24792 3.31642 2.52801L3.44845 2.67823ZM1.1 7.86375C1.1 5.87944 1.95607 3.98926 3.44844 2.67825L3.31644 2.52799C1.78091 3.87693 0.9 5.82183 0.9 7.86375L1.1 7.86375ZM7.99986 7.73272C7.68611 7.73272 7.43179 7.47841 7.43179 7.16465L7.23179 7.16465C7.23179 7.58886 7.57565 7.93272 7.99986 7.93272L7.99986 7.73272ZM8.56793 7.16465C8.56793 7.47841 8.31361 7.73272 7.99986 7.73272L7.99986 7.93272C8.42407 7.93272 8.76793 7.58886 8.76793 7.16465L8.56793 7.16465ZM8.56793 1.66798L8.56793 7.16465L8.76793 7.16465L8.76793 1.66798L8.56793 1.66798ZM7.99986 1.09991C8.31361 1.09991 8.56793 1.35423 8.56793 1.66798L8.76793 1.66798C8.76793 1.24377 8.42407 0.899912 7.99986 0.899912L7.99986 1.09991ZM7.43179 1.66798C7.43179 1.35423 7.68611 1.09991 7.99986 1.09991L7.99986 0.899912C7.57565 0.899912 7.23179 1.24377 7.23179 1.66798L7.43179 1.66798ZM7.43179 7.16465L7.43179 1.66798L7.23179 1.66798L7.23179 7.16465L7.43179 7.16465Z" fill="#4E5B67"/>
</g>
</svg>
