<svg width="19" height="19" viewBox="0 0 19 19" fill="none" xmlns="http://www.w3.org/2000/svg">
<path fill-rule="evenodd" clip-rule="evenodd" d="M17.2156 14.2653C17.5793 14.7524 17.5586 15.4356 17.1389 15.9032L17.1338 15.9089C16.3639 16.6709 15.259 17.0731 13.9355 17.0731L13.9027 17.073C12.8449 17.0677 11.6199 16.7777 10.3603 16.2344C10.2997 16.2083 10.2376 16.1912 10.1753 16.1824C9.28538 15.7803 8.39866 15.2498 7.54785 14.607C7.52166 14.5792 7.4929 14.5532 7.46162 14.5292C6.87896 14.0824 6.34762 13.62 5.88233 13.1548C5.41718 12.6896 4.95479 12.1582 4.50801 11.5756C4.48403 11.5443 4.45797 11.5155 4.43019 11.4893C3.78738 10.6385 3.25691 9.75179 2.85477 8.86185C2.84603 8.79958 2.82889 8.73743 2.80277 8.67691C2.25946 7.41731 1.96946 6.19231 1.96418 5.13443L1.96411 5.10166C1.96411 3.7782 2.36628 2.67327 3.1283 1.90335L3.13394 1.89825C3.60062 1.47938 4.28198 1.45798 4.76893 1.81939C4.82614 1.86191 4.88068 1.90972 4.93186 1.96279C6.79048 3.89029 6.65591 4.80028 5.83462 5.64245L4.50384 6.98321C4.29515 7.19349 4.23703 7.51037 4.35753 7.78102C4.39131 7.85691 5.20861 9.66291 7.24405 11.6984L7.29148 11.7457L7.33883 11.7931C9.37427 13.8286 11.1803 14.6459 11.2562 14.6796C11.5268 14.8002 11.8437 14.742 12.054 14.5333L13.3947 13.2026C14.2369 12.3813 15.1469 12.2467 17.0744 14.1053C17.1266 14.1556 17.1736 14.2092 17.2156 14.2653ZM8.30672 10.7305L8.25994 10.6836C6.98558 9.40928 6.23479 8.22976 5.89285 7.62317L6.85621 6.65256L6.86027 6.64846C7.75126 5.73615 8.0413 4.71385 7.72233 3.61025C7.49088 2.80928 6.93278 1.96926 5.96601 0.966663C5.88631 0.884006 5.80218 0.806974 5.71415 0.735799C5.25676 0.36578 4.69379 0.153878 4.09736 0.132376C3.38602 0.106711 2.70344 0.354317 2.17405 0.829499L2.15345 0.848021C2.1439 0.8566 2.13457 0.865467 2.12545 0.874548C1.0716 1.9284 0.519171 3.40373 0.527823 5.1411C0.542575 8.09249 2.16465 11.4677 4.86681 14.1698C4.86691 14.1699 4.86701 14.17 4.86711 14.1701C4.8672 14.1702 4.8673 14.1703 4.8674 14.1704C7.56953 16.8725 10.9447 18.4946 13.8961 18.5094C15.6334 18.518 17.1088 17.9656 18.1626 16.9117C18.1717 16.9026 18.1806 16.8933 18.1892 16.8837L18.2077 16.8631C18.6829 16.3337 18.9305 15.6512 18.9048 14.9398C18.8833 14.3434 18.6714 13.7804 18.3014 13.323C18.2302 13.235 18.1532 13.1509 18.0705 13.0712C17.0679 12.1044 16.2279 11.5463 15.4269 11.3148C14.3233 10.9959 13.301 11.2859 12.3887 12.1769L12.3846 12.181L11.414 13.1443C10.8074 12.8024 9.6279 12.0516 8.35354 10.7772L8.30672 10.7305Z" fill="url(#paint0_linear_366_88)"/>
<defs>
<linearGradient id="paint0_linear_366_88" x1="3.86746" y1="-1.13254" x2="14.5862" y2="21.379" gradientUnits="userSpaceOnUse">
<stop stop-color="#67ADD7"/>
<stop offset="1" stop-color="#67ADD7"/>
</linearGradient>
</defs>
</svg>
