<svg width="20" height="22" viewBox="0 0 20 22" fill="none" xmlns="http://www.w3.org/2000/svg">
<path d="M19.8268 9.7581C19.7593 9.33224 19.3616 9.04213 18.9385 9.11007C18.5154 9.17801 18.2272 9.57834 18.2947 10.0042C18.2954 10.0089 18.2962 10.0135 18.297 10.0181C19.087 14.699 15.9575 19.1382 11.307 19.9334C6.65646 20.7285 2.2461 17.5785 1.4561 12.8976C0.666099 8.21672 3.79569 3.77753 8.44615 2.98237C11.3061 2.49338 14.2171 3.49891 16.1761 5.65248L12.7395 6.80497C12.333 6.94112 12.1131 7.38318 12.2483 7.79238C12.2484 7.79247 12.2484 7.79261 12.2485 7.7927C12.3837 8.2019 12.8229 8.4232 13.2295 8.28709C13.2296 8.28705 13.2297 8.287 13.2298 8.287L17.8843 6.72536C18.2012 6.61912 18.415 6.32059 18.415 5.98436V1.2994C18.415 0.868143 18.0676 0.518555 17.6392 0.518555C17.2107 0.518555 16.8634 0.868143 16.8634 1.2994V4.15174C12.8683 0.327084 6.54928 0.486437 2.74946 4.50764C-1.05036 8.52884 -0.892082 14.8892 3.10305 18.7139C7.09819 22.5386 13.4172 22.3792 17.2171 18.358C19.3838 16.0649 20.3508 12.8784 19.8268 9.7581Z" fill="#4E5B67"/>
</svg>
