<svg width="36" height="36" viewBox="0 0 36 36" fill="none" xmlns="http://www.w3.org/2000/svg">
<path fill-rule="evenodd" clip-rule="evenodd" d="M9.42188 3.07719V6.15442L9.84375 6.57422C10.0758 6.80512 10.2656 7.01821 10.2656 7.04781C10.2656 7.07737 10.2895 7.10156 10.3186 7.10156C10.4008 7.10156 11.7422 8.45961 11.7422 8.54283C11.7422 8.64028 8.64028 11.7422 8.54283 11.7422C8.47048 11.7422 7.24219 10.5467 7.24219 10.4763C7.24219 10.4284 6.65596 9.84375 6.60793 9.84375C6.58726 9.84375 6.47715 9.74883 6.36328 9.63281L6.15625 9.42188H3.07811H0V12.5336V15.6453L1.16016 16.8047C1.79824 17.4424 2.32031 17.9802 2.32031 18C2.32031 18.0198 1.79824 18.5576 1.16016 19.1953L0 20.3547V23.4664V26.5781H3.07656H6.15312L7.3125 25.418C8.06759 24.6624 8.49656 24.2578 8.54269 24.2578C8.64042 24.2578 11.7422 27.3596 11.7422 27.4573C11.7422 27.5034 11.3376 27.9324 10.582 28.6875L9.42188 29.8469V32.9234V36H12.5336H15.6453L16.8047 34.8398C17.4424 34.2018 17.9802 33.6797 18 33.6797C18.0198 33.6797 18.5576 34.2018 19.1953 34.8398L20.3547 36H23.4664H26.5781V32.9215V29.8431L26.4023 29.6719C26.3057 29.5777 26.2266 29.4836 26.2266 29.4627C26.2266 29.4145 25.6421 28.8281 25.594 28.8281C25.5235 28.8281 24.2578 27.5295 24.2578 27.4572C24.2578 27.3598 27.3597 24.2578 27.4571 24.2578C27.5404 24.2578 29.1797 25.8803 29.1797 25.9627C29.1797 25.9918 29.2041 26.0156 29.2339 26.0156C29.2637 26.0156 29.4134 26.1422 29.5664 26.2969L29.8446 26.5781H32.9223H36V23.4664V20.3547L34.8398 19.1953C34.2018 18.5576 33.6797 18.0198 33.6797 18C33.6797 17.9802 34.2018 17.4424 34.8398 16.8047L36 15.6453V12.5336V9.42188H32.9234H29.8469L28.6875 10.582C27.9324 11.3376 27.5034 11.7422 27.4573 11.7422C27.4109 11.7422 26.8488 11.2045 25.8222 10.1778C24.7955 9.15117 24.2578 8.58913 24.2578 8.54269C24.2578 8.49656 24.6624 8.06759 25.418 7.3125L26.5781 6.15312V3.07656V0H23.4664H20.3547L19.1953 1.16016C18.5576 1.79824 18.0198 2.32031 18 2.32031C17.9802 2.32031 17.4424 1.79824 16.8047 1.16016L15.6453 0H12.5336H9.42188V3.07719ZM15.6271 2.93537C16.1566 3.46479 16.4531 3.78668 16.4531 3.83196C16.4531 3.87816 15.9124 4.44326 14.8888 5.4669C14.0284 6.32728 13.3085 7.03125 13.289 7.03125C13.2695 7.03125 12.866 6.64372 12.3924 6.1701L11.5312 5.30895V3.70916V2.10938H13.1662H14.8012L15.6271 2.93537ZM24.4688 3.70916V5.30895L23.6076 6.1701C23.134 6.64372 22.7305 7.03125 22.711 7.03125C22.6915 7.03125 21.9716 6.32728 21.1112 5.4669C20.0876 4.44329 19.5469 3.87812 19.5469 3.83196C19.5469 3.78689 19.8425 3.46363 20.3643 2.93822L21.1816 2.11511L22.8252 2.11226L24.4688 2.10938V3.70916ZM19.6349 6.94336L21.2346 8.54297L19.6349 10.1426C18.7552 11.0224 18.0194 11.7422 18 11.7422C17.9806 11.7422 17.2448 11.0224 16.3651 10.1426L14.7654 8.54297L16.3563 6.94624C17.2313 6.06807 17.9671 5.34825 17.9913 5.34663C18.0155 5.34505 18.7552 6.06357 19.6349 6.94336ZM14.8888 11.619C15.9112 12.6414 16.4531 13.2078 16.4531 13.2539C16.4531 13.3277 13.3594 16.4531 13.2864 16.4531C13.2655 16.4531 13.1876 16.3898 13.1133 16.3125C13.039 16.2352 12.9611 16.1719 12.9401 16.1719C12.8907 16.1719 10.4062 13.6879 10.4062 13.6385C10.4062 13.6178 10.3266 13.5233 10.2293 13.4285L10.0523 13.2561L11.6443 11.6583C12.5199 10.7795 13.2562 10.0592 13.2804 10.0576C13.3046 10.056 14.0284 10.7587 14.8888 11.619ZM24.3458 11.6542C25.2255 12.5339 25.9453 13.2696 25.9453 13.2891C25.9453 13.3085 25.2413 14.0284 24.381 14.8888C23.3586 15.9112 22.7922 16.4531 22.7461 16.4531C22.6489 16.4531 19.5469 13.3511 19.5469 13.2539C19.5469 13.178 22.6221 10.0628 22.7023 10.0576C22.7265 10.056 23.4661 10.7745 24.3458 11.6542ZM6.1701 12.3924C6.64372 12.866 7.03125 13.2695 7.03125 13.289C7.03125 13.3085 6.32728 14.0284 5.4669 14.8888C4.44326 15.9124 3.87816 16.4531 3.83196 16.4531C3.78668 16.4531 3.46479 16.1566 2.93537 15.6271L2.10938 14.8012V13.1662V11.5312H3.70916H5.30895L6.1701 12.3924ZM33.8906 13.1662V14.8012L33.0646 15.6271C32.5352 16.1566 32.2133 16.4531 32.168 16.4531C32.1218 16.4531 31.5567 15.9124 30.5331 14.8888C29.6727 14.0284 28.9688 13.3085 28.9688 13.289C28.9688 13.2695 29.3524 12.8673 29.8213 12.3953L30.6738 11.537L32.2822 11.5341L33.8906 11.5312V13.1662ZM10.1427 16.3651C11.0224 17.2449 11.7422 17.9806 11.7422 18C11.7422 18.0194 11.0224 18.7552 10.1426 19.6349L8.54297 21.2346L6.94336 19.6349C6.06357 18.7552 5.34375 18.0194 5.34375 18C5.34375 17.9729 8.49477 14.7814 8.53429 14.7685C8.53917 14.7669 9.26293 15.4854 10.1427 16.3651ZM18.8615 15.5916C19.3158 16.0459 19.6875 16.4414 19.6875 16.4705C19.6875 16.4996 19.7113 16.5234 19.7404 16.5234C19.7985 16.5234 21.2344 17.9425 21.2344 17.9999C21.2344 18.0463 18.0462 21.2344 17.9999 21.2344C17.9532 21.2344 16.7344 20.0152 16.7344 19.9685C16.7344 19.9216 16.1487 19.3359 16.1018 19.3359C16.0552 19.3359 14.7656 18.0468 14.7656 18.0001C14.7656 17.9499 17.9378 14.7721 17.9914 14.7685C18.0157 14.7669 18.4072 15.1373 18.8615 15.5916ZM29.0567 16.3651C29.9365 17.2449 30.6562 17.9806 30.6562 18C30.6562 18.0194 29.9364 18.7552 29.0566 19.6349L27.457 21.2346L25.8574 19.6349C24.9776 18.7552 24.2578 18.0194 24.2578 18C24.2578 17.9729 27.4088 14.7814 27.4483 14.7685C27.4532 14.7669 28.177 15.4854 29.0567 16.3651ZM5.4669 21.1112C6.32728 21.9716 7.03125 22.6915 7.03125 22.711C7.03125 22.7305 6.64372 23.134 6.1701 23.6076L5.30895 24.4688H3.70916H2.10938V22.8338V21.1989L2.92676 20.3757C3.49154 19.807 3.76861 19.5517 3.82335 19.5498C3.88259 19.5476 4.29645 19.9408 5.4669 21.1112ZM14.8888 21.1112C15.9112 22.1336 16.4531 22.7 16.4531 22.7461C16.4531 22.7922 15.9112 23.3586 14.8888 24.381C14.0284 25.2413 13.3085 25.9453 13.2891 25.9453C13.2429 25.9453 10.0547 22.7571 10.0547 22.7109C10.0547 22.6915 10.7548 21.9729 11.6104 21.1141C12.7057 20.0147 13.1895 19.5518 13.2452 19.5498C13.3045 19.5476 13.718 19.9404 14.8888 21.1112ZM24.381 21.1112C25.2413 21.9716 25.9453 22.6915 25.9453 22.7109C25.9453 22.7304 25.2249 23.4667 24.3443 24.3472L22.7434 25.9482L22.6069 25.8061C22.5318 25.728 22.4532 25.6641 22.4323 25.6641C22.3829 25.6641 19.8984 23.1801 19.8984 23.1307C19.8984 23.11 19.8193 23.0161 19.7227 22.9219C19.626 22.8277 19.5469 22.7338 19.5469 22.7131C19.5469 22.6925 20.2469 21.9729 21.1025 21.1141C22.1979 20.0147 22.6817 19.5518 22.7374 19.5498C22.7967 19.5476 23.2102 19.9404 24.381 21.1112ZM33.0646 20.3729L33.8906 21.1988V22.8338V24.4688H32.2908H30.6911L29.8299 23.6076C29.3563 23.134 28.9688 22.7305 28.9688 22.711C28.9688 22.6915 29.6688 21.9729 30.5244 21.1141C31.6208 20.0136 32.1035 19.5518 32.1594 19.5498C32.2178 19.5476 32.4562 19.7645 33.0646 20.3729ZM19.6349 25.8574L21.2346 27.457L19.6349 29.0566C18.7552 29.9364 18.0194 30.6562 18 30.6562C17.9806 30.6562 17.2448 29.9364 16.3651 29.0566L14.7654 27.457L16.3563 25.8603C17.2313 24.9821 17.9671 24.2623 17.9913 24.2607C18.0155 24.2591 18.7552 24.9776 19.6349 25.8574ZM14.8888 30.5331C15.9124 31.5567 16.4531 32.1218 16.4531 32.168C16.4531 32.2133 16.1566 32.5352 15.6271 33.0646L14.8012 33.8906H13.1662H11.5312V32.2908V30.6911L12.3838 29.8328C12.8527 29.3607 13.2562 28.9732 13.2804 28.9716C13.3046 28.97 14.0284 29.6727 14.8888 30.5331ZM23.6076 29.8299L24.4688 30.6911V32.2908V33.8906H22.8338H21.1988L20.3729 33.0646C19.8435 32.5352 19.5469 32.2133 19.5469 32.1681C19.5469 32.092 22.6221 28.9769 22.7023 28.9716C22.7266 28.97 23.134 29.3563 23.6076 29.8299Z" fill="url(#paint0_linear_128_858)"/>
<defs>
<linearGradient id="paint0_linear_128_858" x1="-0.29752" y1="-1.89753e-06" x2="40.6711" y2="6.48334" gradientUnits="userSpaceOnUse">
<stop stop-color="#67ADD7"/>
<stop offset="1" stop-color="#67ADD7"/>
</linearGradient>
</defs>
</svg>
