<svg width="50" height="50" viewBox="0 0 50 50" fill="none" xmlns="http://www.w3.org/2000/svg">
<path d="M43.7094 17.551C43.7094 16.5887 43.3285 15.7138 42.7097 15.0687C43.3285 14.424 43.7094 13.5491 43.7094 12.5868C43.7094 10.6091 42.1003 9 40.1227 9H19.4344C16.0879 9 13.3657 11.7225 13.3657 15.0687C13.3657 16.5363 13.8893 17.8836 14.7593 18.934H9.58676C7.60911 18.934 6 20.5431 6 22.5207C6 23.4831 6.38091 24.358 6.99976 25.003C6.38091 25.6478 6 26.5227 6 27.485C6 28.8202 6.73392 29.9866 7.81913 30.604C6.69738 31.7059 6 33.2381 6 34.931C6 38.2775 8.7225 41 12.0687 41H40.1227C42.1003 41 43.7094 39.3909 43.7094 37.413C43.7094 36.4509 43.3285 35.576 42.7097 34.931C43.3285 34.2862 43.7094 33.4111 43.7094 32.449C43.7094 31.1138 42.9755 29.9474 41.8903 29.33C43.012 28.2281 43.7094 26.6958 43.7094 25.003C43.7094 23.3082 43.0103 21.7742 41.8865 20.6723C42.9738 20.0554 43.7094 18.8877 43.7094 17.551ZM19.4344 11.2095H40.1227C40.8822 11.2095 41.4999 11.8275 41.4999 12.5868C41.4999 13.3463 40.8819 13.9643 40.1227 13.9643H19.5556V16.1738H40.1227C40.8822 16.1738 41.4999 16.7915 41.4999 17.551C41.4999 18.3103 40.8819 18.9282 40.1227 18.9282H19.4344C17.3063 18.9282 15.5752 17.1971 15.5752 15.069C15.5752 12.9409 17.3063 11.2095 19.4344 11.2095ZM9.58676 28.8622C8.82723 28.8622 8.20954 28.2442 8.20954 27.485C8.20954 26.7255 8.82752 26.1078 9.58676 26.1078H37.5195V23.8983H9.58676C8.82723 23.8983 8.20954 23.2803 8.20954 22.5207C8.20954 21.7615 8.82752 21.1435 9.58676 21.1435H37.6407C39.7685 21.1435 41.4999 22.8749 41.4999 25.003C41.4999 27.1308 39.7685 28.8622 37.6407 28.8622H9.58676ZM40.1227 31.0718C40.8822 31.0718 41.4999 31.6897 41.4999 32.449C41.4999 33.2085 40.8819 33.8262 40.1227 33.8262H12.1899V36.0357H40.1227C40.8822 36.0357 41.4999 36.6537 41.4999 37.4132C41.4999 38.1725 40.8819 38.7905 40.1227 38.7905H12.0687C9.94091 38.7905 8.20954 37.0591 8.20954 34.931C8.20954 32.8031 9.94091 31.0718 12.0687 31.0718H40.1227Z" fill="url(#paint0_linear_45_261)"/>
<defs>
<linearGradient id="paint0_linear_45_261" x1="5.68835" y1="9" x2="48.1986" y2="16.9276" gradientUnits="userSpaceOnUse">
<stop stop-color="#67ADD7"/>
<stop offset="1" stop-color="#67ADD7"/>
</linearGradient>
</defs>
</svg>
