<svg width="36" height="33" viewBox="0 0 36 33" fill="none" xmlns="http://www.w3.org/2000/svg">
<path fill-rule="evenodd" clip-rule="evenodd" d="M18.0002 2.34794C18.6486 2.34794 19.1741 1.82235 19.1741 1.17397C19.1741 0.525586 18.6486 0 18.0002 0C17.3519 0 16.8263 0.525586 16.8263 1.17397C16.8263 1.82235 17.3519 2.34794 18.0002 2.34794ZM12.5216 5.86984C12.5216 6.51822 11.996 7.04381 11.3476 7.04381C10.6993 7.04381 10.1737 6.51822 10.1737 5.86984C10.1737 5.22146 10.6993 4.69587 11.3476 4.69587C11.996 4.69587 12.5216 5.22146 12.5216 5.86984ZM26.2179 5.86984C26.2179 6.51822 25.6923 7.04381 25.044 7.04381C24.3957 7.04381 23.8701 6.51822 23.8701 5.86984C23.8701 5.22146 24.3957 4.69587 25.044 4.69587C25.6923 4.69587 26.2179 5.22146 26.2179 5.86984ZM30.3014 21.8237C33.3903 22.902 35.5224 24.87 35.6281 24.9687C36.1235 25.432 36.1244 26.2195 35.6281 26.6836C35.4603 26.8405 31.4647 30.5219 26.4131 30.5219C25.2766 30.5219 24.1936 30.3351 23.1955 30.0445C21.8158 31.6135 19.0058 32.6014 18.3659 32.8113C18.2008 32.8653 18.0267 32.8819 17.856 32.8611C17.781 32.8518 17.7067 32.8352 17.6341 32.8113C16.9941 32.6014 14.1842 31.6133 12.8045 30.0445C11.8064 30.3351 10.7236 30.5219 9.58691 30.5219C4.5352 30.5219 0.539633 26.8403 0.372013 26.6836C-0.123628 26.2203 -0.124381 25.433 0.372013 24.9687C0.477607 24.87 2.60971 22.9023 5.69856 21.8237C2.9555 17.8697 3.20743 12.7155 3.22124 12.4697C3.25501 11.8723 3.7327 11.3959 4.33017 11.3638C4.53188 11.3527 8.80047 11.1503 12.5957 13.0437C13.9163 9.09668 17.0594 6.30653 17.2272 6.15988C17.6696 5.77291 18.3304 5.77291 18.7729 6.15988C18.9406 6.30653 22.0838 9.09668 23.4043 13.0437C27.1994 11.1503 31.4681 11.3532 31.6697 11.3638C32.2673 11.3959 32.7449 11.8723 32.7787 12.4697C32.7926 12.7155 33.0445 17.8697 30.3014 21.8237ZM21.6338 16.4348C21.6338 13.0455 19.2662 10.0537 18.0018 8.69766C16.7383 10.0575 14.3665 13.0598 14.3665 16.4348C14.3665 19.8241 16.734 22.8159 17.9984 24.1719C19.2619 22.8121 21.6338 19.8098 21.6338 16.4348ZM3.06806 25.8258C4.41385 26.7755 6.85916 28.174 9.58697 28.174C11.4789 28.174 13.2347 27.5012 14.5824 26.772C12.4069 26.4398 9.6139 25.641 7.42925 23.7553C5.60483 24.2099 4.04603 25.1352 3.06806 25.8258ZM5.58035 13.7212C5.67584 15.5396 6.17173 19.1695 8.50127 21.5435C8.52789 21.5638 8.56989 21.6043 8.62902 21.6613C9.14356 22.1575 10.9545 23.9032 15.1787 24.4851C13.1358 21.8712 11.7308 18.7265 12.0713 15.4258C9.7888 14.115 7.07436 13.7931 5.58035 13.7212ZM15.2375 29.0825C15.9547 29.5787 17.0041 30.0917 18 30.4536C18.9957 30.092 20.0452 29.579 20.7626 29.0825C19.574 28.4886 18.6212 27.8287 18 27.3508C17.3788 27.8287 16.4261 28.4884 15.2375 29.0825ZM30.4224 13.721C28.9297 13.7923 26.213 14.114 23.9287 15.4258C24.2683 18.7189 22.871 21.8607 20.8254 24.4798C25.0571 23.8924 26.8597 22.1545 27.3719 21.6605C27.4307 21.6038 27.4725 21.5636 27.499 21.5433C29.8399 19.1587 30.3305 15.5363 30.4224 13.721ZM21.4175 26.772C22.7652 27.5012 24.5211 28.174 26.4131 28.174C29.1406 28.174 31.5857 26.7758 32.9321 25.8258C31.9545 25.1355 30.3956 24.2101 28.571 23.7553C26.3863 25.641 23.5932 26.4398 21.4175 26.772Z" fill="url(#paint0_linear_128_847)"/>
<defs>
<linearGradient id="paint0_linear_128_847" x1="-0.29752" y1="-1.73254e-06" x2="40.4723" y2="7.06631" gradientUnits="userSpaceOnUse">
<stop stop-color="#67ADD7"/>
<stop offset="1" stop-color="#67ADD7"/>
</linearGradient>
</defs>
</svg>
