<svg width="50" height="50" viewBox="0 0 50 50" fill="none" xmlns="http://www.w3.org/2000/svg">
<rect width="50" height="50" rx="25" fill="#67ADD7"/>
<path fill-rule="evenodd" clip-rule="evenodd" d="M17.7094 13.0418C17.7094 13.1126 18.9649 13.1019 18.9885 13.0309C19.0135 12.9561 19.1585 13.0979 19.1585 13.1971C19.1585 13.2362 19.1789 13.2682 19.2038 13.2682C19.2287 13.2682 19.2491 13.3498 19.2491 13.4494C19.2491 13.549 19.2694 13.6305 19.2943 13.6305C19.3192 13.6305 19.3396 13.6916 19.3396 13.7664C19.3396 13.8411 19.36 13.9022 19.3849 13.9022C19.4098 13.9022 19.4302 13.9837 19.4302 14.0833C19.4302 14.183 19.4506 14.2645 19.4755 14.2645C19.5004 14.2645 19.5208 14.3256 19.5208 14.4003C19.5208 14.475 19.5411 14.5362 19.566 14.5362C19.5909 14.5362 19.6113 14.6177 19.6113 14.7173C19.6113 14.8169 19.6317 14.8984 19.6566 14.8984C19.6815 14.8984 19.7019 14.9799 19.7019 15.0796C19.7019 15.1792 19.7223 15.2607 19.7472 15.2607C19.7721 15.2607 19.7925 15.3218 19.7925 15.3965C19.7925 15.4713 19.8128 15.5324 19.8377 15.5324C19.8626 15.5324 19.883 15.6139 19.883 15.7135C19.883 15.8132 19.9034 15.8947 19.9283 15.8947C19.9532 15.8947 19.9736 15.9558 19.9736 16.0305C19.9736 16.1052 19.994 16.1664 20.0189 16.1664C20.0438 16.1664 20.0642 16.2479 20.0642 16.3475C20.0642 16.4984 20.0792 16.5286 20.1547 16.5286C20.2302 16.5286 20.2453 16.4984 20.2453 16.3475C20.2453 16.2479 20.2657 16.1664 20.2906 16.1664C20.3155 16.1664 20.3358 16.0848 20.3358 15.9852C20.3358 15.8856 20.3562 15.8041 20.3811 15.8041C20.406 15.8041 20.4264 15.7226 20.4264 15.623C20.4264 15.5233 20.4468 15.4418 20.4717 15.4418C20.4966 15.4418 20.517 15.3807 20.517 15.306C20.517 15.2313 20.5374 15.1701 20.5623 15.1701C20.5872 15.1701 20.6075 15.0886 20.6075 14.989C20.6075 14.8894 20.6279 14.8079 20.6528 14.8079C20.6777 14.8079 20.6981 14.7264 20.6981 14.6267C20.6981 14.5271 20.7185 14.4456 20.7434 14.4456C20.7683 14.4456 20.7887 14.3641 20.7887 14.2645C20.7887 14.1648 20.8091 14.0833 20.834 14.0833C20.8589 14.0833 20.8792 14.0222 20.8792 13.9475C20.8792 13.8728 20.8996 13.8116 20.9245 13.8116C20.9494 13.8116 20.9698 13.7301 20.9698 13.6305C20.9698 13.5309 20.9902 13.4494 21.0151 13.4494C21.04 13.4494 21.0604 13.3679 21.0604 13.2682V13.0871H21.9208C22.4642 13.0871 22.7811 13.1038 22.7811 13.1324C22.7811 13.1573 22.7608 13.1777 22.7358 13.1777C22.7109 13.1777 22.6906 13.2184 22.6906 13.2682C22.6906 13.3181 22.6702 13.3588 22.6453 13.3588C22.6204 13.3588 22.6 13.4199 22.6 13.4947C22.6 13.5694 22.5796 13.6305 22.5547 13.6305C22.5298 13.6305 22.5094 13.6916 22.5094 13.7664C22.5094 13.8411 22.4891 13.9022 22.4642 13.9022C22.4392 13.9022 22.4189 13.9633 22.4189 14.0381C22.4189 14.1128 22.3985 14.1739 22.3736 14.1739C22.3487 14.1739 22.3283 14.235 22.3283 14.3098C22.3283 14.3845 22.3079 14.4456 22.283 14.4456C22.2581 14.4456 22.2377 14.5067 22.2377 14.5815C22.2377 14.6562 22.2174 14.7173 22.1925 14.7173C22.1675 14.7173 22.1472 14.7784 22.1472 14.8532C22.1472 14.9279 22.1268 14.989 22.1019 14.989C22.077 14.989 22.0566 15.0501 22.0566 15.1248C22.0566 15.1996 22.0362 15.2607 22.0113 15.2607C21.9864 15.2607 21.966 15.3218 21.966 15.3965C21.966 15.4713 21.9457 15.5324 21.9208 15.5324C21.8958 15.5324 21.8755 15.5732 21.8755 15.623C21.8755 15.6728 21.8551 15.7135 21.8302 15.7135C21.8053 15.7135 21.7849 15.7747 21.7849 15.8494C21.7849 15.9241 21.7645 15.9852 21.7396 15.9852C21.7147 15.9852 21.6943 16.0464 21.6943 16.1211C21.6943 16.1958 21.674 16.2569 21.6491 16.2569C21.6242 16.2569 21.6038 16.3181 21.6038 16.3928C21.6038 16.4675 21.5834 16.5286 21.5585 16.5286C21.5336 16.5286 21.5132 16.5898 21.5132 16.6645C21.5132 16.7392 21.4928 16.8003 21.4679 16.8003C21.443 16.8003 21.4226 16.8615 21.4226 16.9362C21.4226 17.0109 21.4023 17.072 21.3774 17.072C21.3525 17.072 21.3321 17.1332 21.3321 17.2079C21.3321 17.2826 21.3117 17.3437 21.2868 17.3437C21.2619 17.3437 21.2415 17.4048 21.2415 17.4796C21.2415 17.5543 21.2211 17.6154 21.1962 17.6154C21.1713 17.6154 21.1509 17.6765 21.1509 17.7513C21.1509 17.826 21.1306 17.8871 21.1057 17.8871C21.0808 17.8871 21.0604 17.9482 21.0604 18.023C21.0604 18.0977 21.04 18.1588 21.0151 18.1588C20.9856 18.1588 20.9698 18.823 20.9698 20.0607V21.9626H20.1547H19.3396V20.106C19.3396 18.8984 19.3238 18.2494 19.2943 18.2494C19.2694 18.2494 19.2491 18.1882 19.2491 18.1135C19.2491 18.0388 19.2287 17.9777 19.2038 17.9777C19.1789 17.9777 19.1585 17.9369 19.1585 17.8871C19.1585 17.8373 19.1381 17.7965 19.1132 17.7965C19.0883 17.7965 19.0679 17.7354 19.0679 17.6607C19.0679 17.586 19.0475 17.5248 19.0226 17.5248C18.9977 17.5248 18.9774 17.4637 18.9774 17.389C18.9774 17.3143 18.957 17.2532 18.9321 17.2532C18.9072 17.2532 18.8868 17.192 18.8868 17.1173C18.8868 17.0426 18.8664 16.9815 18.8415 16.9815C18.8166 16.9815 18.7962 16.9203 18.7962 16.8456C18.7962 16.7709 18.7758 16.7098 18.7509 16.7098C18.726 16.7098 18.7057 16.6486 18.7057 16.5739C18.7057 16.4992 18.6853 16.4381 18.6604 16.4381C18.6355 16.4381 18.6151 16.3769 18.6151 16.3022C18.6151 16.2275 18.5947 16.1664 18.5698 16.1664C18.5449 16.1664 18.5245 16.1052 18.5245 16.0305C18.5245 15.9558 18.5042 15.8947 18.4792 15.8947C18.4543 15.8947 18.434 15.8335 18.434 15.7588C18.434 15.6841 18.4136 15.623 18.3887 15.623C18.3638 15.623 18.3434 15.5618 18.3434 15.4871C18.3434 15.4124 18.323 15.3513 18.2981 15.3513C18.2732 15.3513 18.2528 15.2901 18.2528 15.2154C18.2528 15.1407 18.2325 15.0796 18.2075 15.0796C18.1826 15.0796 18.1623 15.0184 18.1623 14.9437C18.1623 14.869 18.1419 14.8079 18.117 14.8079C18.0921 14.8079 18.0717 14.7467 18.0717 14.672C18.0717 14.5973 18.0513 14.5362 18.0264 14.5362C18.0015 14.5362 17.9811 14.475 17.9811 14.4003C17.9811 14.3256 17.9608 14.2645 17.9358 14.2645C17.9109 14.2645 17.8906 14.2033 17.8906 14.1286C17.8906 14.0539 17.8702 13.9928 17.8453 13.9928C17.8204 13.9928 17.8 13.952 17.8 13.9022C17.8 13.8524 17.7796 13.8116 17.7547 13.8116C17.7298 13.8116 17.7094 13.7301 17.7094 13.6305C17.7094 13.5309 17.6891 13.4494 17.6642 13.4494C17.6392 13.4494 17.6189 13.4086 17.6189 13.3588C17.6189 13.309 17.5985 13.2682 17.5736 13.2682C17.5101 13.2682 17.5171 13.1413 17.5849 13.0643C17.6516 12.9885 17.7094 12.9781 17.7094 13.0418ZM25.1358 15.2154C25.1358 15.2403 25.2377 15.2607 25.3623 15.2607C25.4868 15.2607 25.5887 15.2811 25.5887 15.306C25.5887 15.3309 25.6294 15.3513 25.6792 15.3513C25.7291 15.3513 25.7698 15.3716 25.7698 15.3965C25.7698 15.4215 25.8106 15.4418 25.8604 15.4418C25.9102 15.4418 25.9509 15.4622 25.9509 15.4871C25.9509 15.512 25.982 15.5324 26.0199 15.5324C26.1095 15.5324 26.5849 16.0078 26.5849 16.0974C26.5849 16.1353 26.6053 16.1664 26.6302 16.1664C26.6551 16.1664 26.6755 16.2071 26.6755 16.2569C26.6755 16.3067 26.6958 16.3475 26.7208 16.3475C26.7457 16.3475 26.766 16.4494 26.766 16.5739C26.766 16.6984 26.7864 16.8003 26.8113 16.8003C26.8408 16.8003 26.8566 17.4343 26.8566 18.6116C26.8566 19.789 26.8408 20.423 26.8113 20.423C26.7861 20.423 26.766 20.5437 26.766 20.6947C26.766 20.8456 26.7459 20.9664 26.7208 20.9664C26.6958 20.9664 26.6755 21.023 26.6755 21.0922C26.6755 21.1661 26.6381 21.245 26.5849 21.2833C26.5351 21.3192 26.4943 21.3754 26.4943 21.408C26.4943 21.4853 26.1982 21.7815 26.1209 21.7815C26.0882 21.7815 26.0321 21.8222 25.9962 21.872C25.9579 21.9252 25.879 21.9626 25.8051 21.9626C25.7359 21.9626 25.6792 21.983 25.6792 22.0079C25.6792 22.0328 25.6181 22.0532 25.5434 22.0532C25.4687 22.0532 25.4075 22.0735 25.4075 22.0984C25.4075 22.1263 25.1811 22.1437 24.8189 22.1437C24.4566 22.1437 24.2302 22.1263 24.2302 22.0984C24.2302 22.0735 24.1487 22.0532 24.0491 22.0532C23.9494 22.0532 23.8679 22.0328 23.8679 22.0079C23.8679 21.983 23.8317 21.9626 23.7874 21.9626C23.743 21.9626 23.6774 21.9218 23.6415 21.872C23.6056 21.8222 23.5496 21.7815 23.5171 21.7815C23.4347 21.7815 23.0528 21.3914 23.0528 21.3072C23.0528 21.2692 23.0325 21.2381 23.0075 21.2381C22.9826 21.2381 22.9623 21.1973 22.9623 21.1475C22.9623 21.0977 22.9419 21.0569 22.917 21.0569C22.8921 21.0569 22.8717 20.9958 22.8717 20.9211C22.8717 20.8464 22.8513 20.7852 22.8264 20.7852C22.7969 20.7852 22.7811 20.0456 22.7811 18.6569C22.7811 17.2682 22.7969 16.5286 22.8264 16.5286C22.8513 16.5286 22.8717 16.4675 22.8717 16.3928C22.8717 16.3181 22.8921 16.2569 22.917 16.2569C22.9419 16.2569 22.9623 16.2162 22.9623 16.1664C22.9623 16.1165 22.9826 16.0758 23.0075 16.0758C23.0325 16.0758 23.0528 16.0445 23.0528 16.0064C23.0528 15.9216 23.3437 15.623 23.4262 15.623C23.4589 15.623 23.515 15.5822 23.5509 15.5324C23.5869 15.4826 23.6525 15.4418 23.6968 15.4418C23.7411 15.4418 23.7774 15.4215 23.7774 15.3965C23.7774 15.3716 23.8385 15.3513 23.9132 15.3513C23.9879 15.3513 24.0491 15.3309 24.0491 15.306C24.0491 15.2808 24.1698 15.2607 24.3208 15.2607C24.4717 15.2607 24.5925 15.2406 24.5925 15.2154C24.5925 15.1902 24.7132 15.1701 24.8642 15.1701C25.0151 15.1701 25.1358 15.1902 25.1358 15.2154ZM29.2372 15.416C29.2917 15.4705 29.3019 15.8861 29.3019 18.0682C29.3019 20.7949 29.3012 20.7852 29.4986 20.7852C29.5357 20.7852 29.5779 20.8107 29.5925 20.8418C29.6136 20.8871 29.6242 20.8871 29.6453 20.8418C29.6598 20.8107 29.7266 20.7852 29.7938 20.7852C29.8639 20.7852 29.9436 20.7467 29.9811 20.6947C30.017 20.6448 30.0734 20.6041 30.1064 20.6041C30.1394 20.6041 30.2164 20.5541 30.2775 20.4929L30.3887 20.3818V17.8665V15.3513H31.0485C31.56 15.3513 31.7229 15.3658 31.773 15.416C31.8279 15.4708 31.8377 15.9731 31.8377 18.7216V21.9626H31.1132H30.3887V21.6456C30.3887 21.4713 30.3769 21.3286 30.3625 21.3286C30.3481 21.3286 30.258 21.4101 30.1623 21.5098C30.0665 21.6094 29.9606 21.6909 29.9267 21.6909C29.8929 21.6909 29.8359 21.7316 29.8 21.7815C29.7641 21.8313 29.6985 21.872 29.6541 21.872C29.6099 21.872 29.5736 21.8924 29.5736 21.9173C29.5736 21.9422 29.5125 21.9626 29.4377 21.9626C29.363 21.9626 29.3019 21.983 29.3019 22.0079C29.3019 22.035 29.1208 22.0532 28.8491 22.0532C28.5774 22.0532 28.3962 22.035 28.3962 22.0079C28.3962 21.983 28.3648 21.9626 28.3263 21.9626C28.2357 21.9626 28.034 21.7609 28.034 21.6703C28.034 21.6318 28.0136 21.6003 27.9887 21.6003C27.9638 21.6003 27.9434 21.5392 27.9434 21.4645C27.9434 21.3898 27.923 21.3286 27.8981 21.3286C27.8684 21.3286 27.8528 20.3022 27.8528 18.3399V15.3513H28.5126C29.0242 15.3513 29.187 15.3658 29.2372 15.416ZM24.3774 16.5984L24.2302 16.7525V18.6783C24.2302 19.932 24.246 20.6041 24.2755 20.6041C24.3004 20.6041 24.3208 20.6361 24.3208 20.6752C24.3208 20.7668 24.4298 20.8758 24.5213 20.8758C24.5604 20.8758 24.5925 20.8962 24.5925 20.9211C24.5925 20.946 24.674 20.9664 24.7736 20.9664C24.8732 20.9664 24.9547 20.946 24.9547 20.9211C24.9547 20.8962 24.9862 20.8758 25.0247 20.8758C25.0632 20.8758 25.1447 20.8258 25.2058 20.7646L25.317 20.6535V18.6569V16.6604L25.2058 16.5492C25.1104 16.4538 25.0542 16.4385 24.8096 16.4412C24.5462 16.444 24.5133 16.456 24.3774 16.5984ZM33.1057 24.0003C33.1057 24.0255 33.2264 24.0456 33.3774 24.0456C33.5283 24.0456 33.6491 24.0657 33.6491 24.0909C33.6491 24.1158 33.7102 24.1362 33.7849 24.1362C33.8596 24.1362 33.9208 24.1565 33.9208 24.1815C33.9208 24.2064 33.9819 24.2267 34.0566 24.2267C34.1313 24.2267 34.1925 24.2471 34.1925 24.272C34.1925 24.2969 34.2332 24.3173 34.283 24.3173C34.3328 24.3173 34.3736 24.3377 34.3736 24.3626C34.3736 24.3875 34.4302 24.4079 34.4994 24.4079C34.5733 24.4079 34.6522 24.4453 34.6906 24.4984C34.7265 24.5482 34.7921 24.589 34.8364 24.589C34.8807 24.589 34.917 24.6094 34.917 24.6343C34.917 24.6592 34.9495 24.6796 34.9894 24.6796C35.0292 24.6796 35.1189 24.7407 35.1887 24.8154C35.2585 24.8901 35.3383 24.9513 35.3661 24.9513C35.4319 24.9513 36.0943 25.6137 36.0943 25.6796C36.0943 25.7073 36.1555 25.7871 36.2302 25.8569C36.3049 25.9267 36.366 26.0164 36.366 26.0562C36.366 26.0961 36.3864 26.1286 36.4113 26.1286C36.4362 26.1286 36.4566 26.1694 36.4566 26.2192C36.4566 26.269 36.477 26.3098 36.5019 26.3098C36.5268 26.3098 36.5472 26.3505 36.5472 26.4003C36.5472 26.4501 36.5675 26.4909 36.5925 26.4909C36.6174 26.4909 36.6377 26.5316 36.6377 26.5815C36.6377 26.6313 36.6581 26.672 36.683 26.672C36.7079 26.672 36.7283 26.7331 36.7283 26.8079C36.7283 26.8826 36.7487 26.9437 36.7736 26.9437C36.7985 26.9437 36.8189 27.0048 36.8189 27.0796C36.8189 27.1543 36.8392 27.2154 36.8642 27.2154C36.8891 27.2154 36.9094 27.3173 36.9094 27.4418C36.9094 27.5664 36.9298 27.6682 36.9547 27.6682C36.9843 27.6682 37 28.4833 37 30.023C37 31.5626 36.9843 32.3777 36.9547 32.3777C36.9298 32.3777 36.9094 32.4796 36.9094 32.6041C36.9094 32.7286 36.8891 32.8305 36.8642 32.8305C36.8392 32.8305 36.8189 32.8916 36.8189 32.9664C36.8189 33.0411 36.7985 33.1022 36.7736 33.1022C36.7487 33.1022 36.7283 33.1633 36.7283 33.2381C36.7283 33.3128 36.7079 33.3739 36.683 33.3739C36.6581 33.3739 36.6377 33.4147 36.6377 33.4645C36.6377 33.5143 36.6174 33.555 36.5925 33.555C36.5675 33.555 36.5472 33.5958 36.5472 33.6456C36.5472 33.6954 36.5268 33.7362 36.5019 33.7362C36.477 33.7362 36.4566 33.7769 36.4566 33.8267C36.4566 33.8765 36.4362 33.9173 36.4113 33.9173C36.3864 33.9173 36.366 33.9499 36.366 33.9897C36.366 34.0295 36.3049 34.1192 36.2302 34.189C36.1555 34.2588 36.0943 34.3386 36.0943 34.3664C36.0943 34.4323 35.4319 35.0947 35.3661 35.0947C35.3383 35.0947 35.2585 35.1558 35.1887 35.2305C35.1189 35.3052 35.0292 35.3664 34.9894 35.3664C34.9495 35.3664 34.917 35.3867 34.917 35.4116C34.917 35.4365 34.8807 35.4569 34.8364 35.4569C34.7921 35.4569 34.7265 35.4977 34.6906 35.5475C34.6522 35.6007 34.5733 35.6381 34.4994 35.6381C34.4302 35.6381 34.3736 35.6584 34.3736 35.6833C34.3736 35.7082 34.3328 35.7286 34.283 35.7286C34.2332 35.7286 34.1925 35.749 34.1925 35.7739C34.1925 35.7988 34.1313 35.8192 34.0566 35.8192C33.9819 35.8192 33.9208 35.8396 33.9208 35.8645C33.9208 35.8894 33.8596 35.9098 33.7849 35.9098C33.7102 35.9098 33.6491 35.9301 33.6491 35.955C33.6491 35.9802 33.5283 36.0003 33.3774 36.0003C33.2264 36.0003 33.1057 36.0204 33.1057 36.0456C33.1057 36.0756 30.3736 36.0909 25 36.0909C19.6264 36.0909 16.8943 36.0756 16.8943 36.0456C16.8943 36.0204 16.7736 36.0003 16.6226 36.0003C16.4717 36.0003 16.3509 35.9802 16.3509 35.955C16.3509 35.9301 16.2898 35.9098 16.2151 35.9098C16.1404 35.9098 16.0792 35.8894 16.0792 35.8645C16.0792 35.8396 16.0181 35.8192 15.9434 35.8192C15.8687 35.8192 15.8075 35.7988 15.8075 35.7739C15.8075 35.749 15.7464 35.7286 15.6717 35.7286C15.597 35.7286 15.5358 35.7082 15.5358 35.6833C15.5358 35.6584 15.4951 35.6381 15.4453 35.6381C15.3955 35.6381 15.3547 35.6177 15.3547 35.5928C15.3547 35.5679 15.3184 35.5475 15.2742 35.5475C15.2298 35.5475 15.1642 35.5067 15.1283 35.4569C15.0924 35.4071 15.0313 35.3664 14.9925 35.3664C14.9536 35.3664 14.8925 35.3256 14.8566 35.2758C14.8207 35.226 14.765 35.1852 14.7328 35.1852C14.6613 35.1852 13.9057 34.437 13.9057 34.3663C13.9057 34.3386 13.8445 34.2588 13.7698 34.189C13.6951 34.1192 13.634 34.0295 13.634 33.9897C13.634 33.9499 13.6136 33.9173 13.5887 33.9173C13.5638 33.9173 13.5434 33.8765 13.5434 33.8267C13.5434 33.7769 13.523 33.7362 13.4981 33.7362C13.4732 33.7362 13.4528 33.6954 13.4528 33.6456C13.4528 33.5958 13.4325 33.555 13.4075 33.555C13.3826 33.555 13.3623 33.5143 13.3623 33.4645C13.3623 33.4147 13.3419 33.3739 13.317 33.3739C13.2921 33.3739 13.2717 33.3331 13.2717 33.2833C13.2717 33.2335 13.2513 33.1928 13.2264 33.1928C13.2015 33.1928 13.1811 33.1113 13.1811 33.0116C13.1811 32.912 13.1608 32.8305 13.1358 32.8305C13.1109 32.8305 13.0906 32.749 13.0906 32.6494C13.0906 32.5498 13.0702 32.4682 13.0453 32.4682C13.0157 32.4682 13 31.6229 13 30.023C13 28.423 13.0157 27.5777 13.0453 27.5777C13.0702 27.5777 13.0906 27.4962 13.0906 27.3965C13.0906 27.2969 13.1109 27.2154 13.1358 27.2154C13.1608 27.2154 13.1811 27.1339 13.1811 27.0343C13.1811 26.9347 13.2015 26.8531 13.2264 26.8531C13.2513 26.8531 13.2717 26.8124 13.2717 26.7626C13.2717 26.7128 13.2921 26.672 13.317 26.672C13.3419 26.672 13.3623 26.6313 13.3623 26.5815C13.3623 26.5316 13.3826 26.4909 13.4075 26.4909C13.4325 26.4909 13.4528 26.4501 13.4528 26.4003C13.4528 26.3505 13.4732 26.3098 13.4981 26.3098C13.523 26.3098 13.5434 26.269 13.5434 26.2192C13.5434 26.1694 13.5638 26.1286 13.5887 26.1286C13.6136 26.1286 13.634 26.0961 13.634 26.0562C13.634 26.0164 13.6951 25.9267 13.7698 25.8569C13.8445 25.7871 13.9057 25.7074 13.9057 25.6796C13.9057 25.6089 14.6613 24.8607 14.7328 24.8607C14.765 24.8607 14.8207 24.8199 14.8566 24.7701C14.8925 24.7203 14.9536 24.6796 14.9925 24.6796C15.0313 24.6796 15.0924 24.6388 15.1283 24.589C15.1642 24.5392 15.2298 24.4984 15.2742 24.4984C15.3184 24.4984 15.3547 24.4781 15.3547 24.4531C15.3547 24.4282 15.3955 24.4079 15.4453 24.4079C15.4951 24.4079 15.5358 24.3875 15.5358 24.3626C15.5358 24.3377 15.597 24.3173 15.6717 24.3173C15.7464 24.3173 15.8075 24.2969 15.8075 24.272C15.8075 24.2471 15.8687 24.2267 15.9434 24.2267C16.0181 24.2267 16.0792 24.2064 16.0792 24.1815C16.0792 24.1565 16.1404 24.1362 16.2151 24.1362C16.2898 24.1362 16.3509 24.1158 16.3509 24.0909C16.3509 24.0657 16.4717 24.0456 16.6226 24.0456C16.7736 24.0456 16.8943 24.0255 16.8943 24.0003C16.8943 23.9703 19.6264 23.955 25 23.955C30.3736 23.955 33.1057 23.9703 33.1057 24.0003ZM16.4415 26.1286V26.672H17.1013C17.6128 26.672 17.7757 26.6866 17.8259 26.7367C17.8808 26.7916 17.8906 27.312 17.8906 30.1782V33.555H18.5245H19.1585V30.1135V26.672H19.8377H20.517V26.1739C20.517 25.872 20.5348 25.6758 20.5623 25.6758C20.5872 25.6758 20.6075 25.6554 20.6075 25.6305C20.6075 25.601 19.883 25.5852 18.5245 25.5852H16.4415V26.1286ZM25.4981 29.5701V33.555H26.0868H26.6755V33.3286C26.6755 33.2041 26.6877 33.1022 26.7026 33.1022C26.7175 33.1022 26.7868 33.1633 26.8566 33.2381C26.9264 33.3128 27.0161 33.3739 27.0559 33.3739C27.0957 33.3739 27.1283 33.3943 27.1283 33.4192C27.1283 33.4441 27.1691 33.4645 27.2189 33.4645C27.2687 33.4645 27.3094 33.4848 27.3094 33.5098C27.3094 33.5347 27.3909 33.555 27.4906 33.555C27.5902 33.555 27.6717 33.5754 27.6717 33.6003C27.6717 33.6252 27.7532 33.6456 27.8528 33.6456C27.9525 33.6456 28.034 33.6252 28.034 33.6003C28.034 33.5754 28.111 33.555 28.2051 33.555C28.3243 33.555 28.396 33.5275 28.4415 33.4645C28.4774 33.4147 28.543 33.3739 28.5874 33.3739C28.6344 33.3739 28.6679 33.3404 28.6679 33.2933C28.6679 33.249 28.7087 33.1834 28.7585 33.1475C28.8117 33.1091 28.8491 33.0303 28.8491 32.9563C28.8491 32.8872 28.8694 32.8305 28.8943 32.8305C28.9239 32.8305 28.9396 32.0758 28.9396 30.6569C28.9396 29.2381 28.9239 28.4833 28.8943 28.4833C28.8694 28.4833 28.8491 28.4222 28.8491 28.3475C28.8491 28.2728 28.8287 28.2116 28.8038 28.2116C28.7789 28.2116 28.7585 28.1804 28.7585 28.1422C28.7585 28.0521 28.4652 27.7588 28.3751 27.7588C28.3369 27.7588 28.3057 27.7384 28.3057 27.7135C28.3057 27.6886 28.2445 27.6682 28.1698 27.6682C28.0951 27.6682 28.034 27.6479 28.034 27.623C28.034 27.5981 27.9321 27.5777 27.8075 27.5777C27.683 27.5777 27.5811 27.5981 27.5811 27.623C27.5811 27.6479 27.52 27.6682 27.4453 27.6682C27.3706 27.6682 27.3094 27.6886 27.3094 27.7135C27.3094 27.7384 27.2773 27.7588 27.238 27.7588C27.1986 27.7588 27.0882 27.8403 26.9925 27.9399C26.6725 28.273 26.6755 28.2831 26.6755 26.8531V25.5852H26.0868H25.4981V29.5701ZM31.2943 27.5324C31.2943 27.5573 31.1925 27.5777 31.0679 27.5777C30.9434 27.5777 30.8415 27.5981 30.8415 27.623C30.8415 27.6479 30.7804 27.6682 30.7057 27.6682C30.6309 27.6682 30.5698 27.6886 30.5698 27.7135C30.5698 27.7384 30.5389 27.7588 30.501 27.7588C30.4632 27.7588 30.3002 27.8909 30.1388 28.0523C29.9774 28.2137 29.8453 28.3767 29.8453 28.4146C29.8453 28.4524 29.8249 28.4833 29.8 28.4833C29.7751 28.4833 29.7547 28.5445 29.7547 28.6192C29.7547 28.6939 29.7343 28.755 29.7094 28.755C29.68 28.755 29.6642 29.4041 29.6642 30.6116C29.6642 31.8192 29.68 32.4682 29.7094 32.4682C29.7343 32.4682 29.7547 32.5294 29.7547 32.6041C29.7547 32.6788 29.7751 32.7399 29.8 32.7399C29.8249 32.7399 29.8453 32.7807 29.8453 32.8305C29.8453 32.8803 29.8657 32.9211 29.8906 32.9211C29.9155 32.9211 29.9359 32.9522 29.9359 32.9902C29.9359 33.0801 30.3203 33.4645 30.4101 33.4645C30.4481 33.4645 30.4792 33.4848 30.4792 33.5098C30.4792 33.5347 30.52 33.555 30.5698 33.555C30.6196 33.555 30.6604 33.5754 30.6604 33.6003C30.6604 33.6255 30.7811 33.6456 30.9321 33.6456C31.083 33.6456 31.2038 33.6657 31.2038 33.6909C31.2038 33.7158 31.2853 33.7362 31.3849 33.7362C31.4845 33.7362 31.566 33.7158 31.566 33.6909C31.566 33.6657 31.6868 33.6456 31.8377 33.6456C31.9887 33.6456 32.1094 33.6255 32.1094 33.6003C32.1094 33.5754 32.1502 33.555 32.2 33.555C32.2498 33.555 32.2906 33.5347 32.2906 33.5098C32.2906 33.4848 32.3313 33.4645 32.3811 33.4645C32.4309 33.4645 32.4717 33.4441 32.4717 33.4192C32.4717 33.3943 32.5032 33.3739 32.5417 33.3739C32.6323 33.3739 32.834 33.1722 32.834 33.0816C32.834 33.0431 32.8543 33.0116 32.8792 33.0116C32.9042 33.0116 32.9245 32.9709 32.9245 32.9211C32.9245 32.8713 32.9449 32.8305 32.9698 32.8305C32.9947 32.8305 33.0151 32.7694 33.0151 32.6947C33.0151 32.6199 33.0355 32.5588 33.0604 32.5588C33.0875 32.5588 33.1057 32.3777 33.1057 32.106V31.6531H32.517H31.9283V32.0607C31.9283 32.3022 31.9099 32.4682 31.883 32.4682C31.8581 32.4682 31.8377 32.509 31.8377 32.5588C31.8377 32.6192 31.8075 32.6494 31.7472 32.6494C31.6974 32.6494 31.6566 32.6698 31.6566 32.6947C31.6566 32.7196 31.5436 32.7399 31.4055 32.7399C31.1992 32.7399 31.1345 32.7201 31.0432 32.6288C30.9821 32.5676 30.9321 32.4861 30.9321 32.4476C30.9321 32.4091 30.9117 32.3777 30.8868 32.3777C30.8583 32.3777 30.8415 32.0758 30.8415 31.5626V30.7475H31.9736H33.1057V29.6607C33.1057 28.9664 33.0893 28.5739 33.0604 28.5739C33.0355 28.5739 33.0151 28.5331 33.0151 28.4833C33.0151 28.4335 32.9947 28.3928 32.9698 28.3928C32.9449 28.3928 32.9245 28.352 32.9245 28.3022C32.9245 28.2524 32.9042 28.2116 32.8792 28.2116C32.8543 28.2116 32.834 28.1802 32.834 28.1417C32.834 28.0561 32.6343 27.8494 32.5517 27.8494C32.5187 27.8494 32.4623 27.8086 32.4264 27.7588C32.3881 27.7056 32.3092 27.6682 32.2353 27.6682C32.1661 27.6682 32.1094 27.6479 32.1094 27.623C32.1094 27.5981 32.0075 27.5777 31.883 27.5777C31.7585 27.5777 31.6566 27.5573 31.6566 27.5324C31.6566 27.5075 31.5751 27.4871 31.4755 27.4871C31.3758 27.4871 31.2943 27.5075 31.2943 27.5324ZM21.1509 30.3399C21.1509 32.0909 21.1666 33.0116 21.1962 33.0116C21.2211 33.0116 21.2415 33.0633 21.2415 33.1263C21.2415 33.2539 21.5108 33.555 21.6249 33.555C21.6631 33.555 21.6943 33.5754 21.6943 33.6003C21.6943 33.6255 21.8151 33.6456 21.966 33.6456C22.117 33.6456 22.2377 33.6255 22.2377 33.6003C22.2377 33.5754 22.2989 33.555 22.3736 33.555C22.4483 33.555 22.5094 33.5347 22.5094 33.5098C22.5094 33.4848 22.5502 33.4645 22.6 33.4645C22.6498 33.4645 22.6906 33.4441 22.6906 33.4192C22.6906 33.3943 22.7231 33.3739 22.763 33.3739C22.8028 33.3739 22.8925 33.3128 22.9623 33.2381C23.032 33.1633 23.1218 33.1022 23.1616 33.1022C23.2038 33.1022 23.234 33.0644 23.234 33.0116C23.234 32.9513 23.2642 32.9211 23.3245 32.9211C23.4065 32.9211 23.4151 32.9513 23.4151 33.2381V33.555H23.9585H24.5019V30.6116V27.6682H23.9585H23.4151V29.9112V32.1543L23.2581 32.3112C23.1718 32.3976 23.0699 32.4682 23.0317 32.4682C22.9935 32.4682 22.9623 32.4886 22.9623 32.5135C22.9623 32.5384 22.9215 32.5588 22.8717 32.5588C22.8219 32.5588 22.7811 32.5792 22.7811 32.6041C22.7811 32.6924 22.5489 32.6477 22.4395 32.5382L22.3283 32.4271V30.0476V27.6682H21.7396H21.1509V30.3399ZM27.6053 28.6403L27.7623 28.7973V30.6328C27.7623 31.8262 27.7464 32.4682 27.717 32.4682C27.6921 32.4682 27.6717 32.5003 27.6717 32.5394C27.6717 32.6758 27.5497 32.7399 27.29 32.7399C27.1513 32.7399 27.0377 32.7196 27.0377 32.6947C27.0377 32.6698 27.0063 32.6494 26.9678 32.6494C26.9293 32.6494 26.8478 32.5993 26.7866 32.5382L26.6755 32.4271V30.5652C26.6755 28.6053 26.6786 28.5739 26.876 28.5739C26.9152 28.5739 26.9472 28.5535 26.9472 28.5286C26.9472 28.5037 27.0599 28.4833 27.1977 28.4833C27.4233 28.4833 27.464 28.499 27.6053 28.6403ZM31.7713 28.6403L31.9283 28.7973V29.3196V29.8418H31.3849H30.8415V29.319C30.8415 28.8243 30.8475 28.7902 30.9527 28.6851C31.0138 28.6239 31.0953 28.5739 31.1338 28.5739C31.1723 28.5739 31.2038 28.5535 31.2038 28.5286C31.2038 28.5037 31.2962 28.4833 31.409 28.4833C31.5829 28.4833 31.6384 28.5074 31.7713 28.6403Z" fill="white"/>
</svg>
