<svg width="36" height="36" viewBox="0 0 36 36" fill="none" xmlns="http://www.w3.org/2000/svg">
<path fill-rule="evenodd" clip-rule="evenodd" d="M35.5616 17.1442C35.2438 16.9154 34.9445 16.6977 34.6577 16.4892C32.9022 15.2128 31.6194 14.28 29.4802 13.2449C30.3349 10.7877 30.5828 9.01978 30.8788 6.90821L30.9764 6.21673C31.0758 5.52063 30.4781 4.9243 29.7832 5.02361C29.5384 5.05855 29.2979 5.09217 29.0603 5.12535C27.0413 5.4066 25.2283 5.6595 22.7551 6.51973C21.7191 4.37871 20.7832 3.09177 19.5102 1.34143L19.494 1.31902C19.2904 1.03931 19.0782 0.747291 18.8556 0.438355C18.6575 0.163037 18.3389 0 17.9998 0C17.6606 0 17.3422 0.163037 17.1439 0.438355C16.9152 0.75586 16.6977 1.05513 16.4893 1.34165C15.2126 3.09749 14.2795 4.38091 13.2445 6.51973C10.7873 5.66499 9.01934 5.41714 6.9081 5.12117C6.68189 5.08953 6.45173 5.05723 6.2164 5.02361C5.5202 4.92408 4.92397 5.52195 5.02306 6.21673C5.05822 6.46304 5.09195 6.70496 5.12524 6.9438C5.40748 8.96749 5.65928 10.7723 6.51929 13.2449C4.37921 14.2803 3.09243 15.2161 1.34335 16.4883C1.05601 16.6973 0.75619 16.9152 0.438025 17.1442C-0.145734 17.5645 -0.146283 18.4353 0.438025 18.8561C0.75619 19.0852 1.0559 19.3032 1.34297 19.512L1.34495 19.5133C3.09914 20.789 4.38179 21.7215 6.51929 22.7556C5.66445 25.2132 5.41648 26.9816 5.1204 29.0934L5.02306 29.7835C4.92364 30.4798 5.52162 31.0762 6.21629 30.9769C6.46107 30.9419 6.70156 30.9083 6.93919 30.8751C8.95815 30.5939 10.7712 30.341 13.2444 29.4807C14.2799 31.6211 15.2157 32.9078 16.4882 34.6573L16.504 34.679C16.708 34.9596 16.9207 35.2521 17.1439 35.5619C17.564 36.1457 18.435 36.1464 18.8556 35.5619C19.0727 35.2604 19.2798 34.9754 19.4786 34.7023L19.5101 34.6588C20.7869 32.903 21.7201 31.6196 22.7551 29.4807C25.2121 30.3353 26.98 30.5833 29.0915 30.8795H29.0931C29.3188 30.9112 29.5484 30.9432 29.7832 30.9769C30.1075 31.023 30.4403 30.9164 30.6781 30.6785C30.9129 30.4438 31.0233 30.1122 30.9764 29.7835L30.9245 29.4155L30.8742 29.0571C30.5921 27.0334 30.3404 25.2281 29.4802 22.7556C31.6209 21.7198 32.9084 20.7835 34.6567 19.512C34.9439 19.303 35.2436 19.085 35.5616 18.8561C35.8368 18.6579 35.9999 18.3393 35.9999 18.0002C35.9999 17.661 35.8369 17.3426 35.5616 17.1442ZM28.6894 7.31053L28.6592 7.5252C28.5192 8.52364 28.2812 10.2221 27.5393 12.4014C26.5688 12.0254 25.5736 11.7057 24.555 11.4449C24.2942 10.4265 23.9745 9.43133 23.5988 8.4608C25.762 7.72427 27.4296 7.48873 28.5 7.33755L28.6894 7.31053ZM17.9998 2.85974L18.2793 3.24558L18.2813 3.24822C19.0476 4.30357 19.8742 5.44197 20.7863 7.29581C20.3332 7.49598 19.8852 7.70889 19.4425 7.93499C19.171 8.07386 18.9016 8.21734 18.6341 8.36588L18.4358 8.47728L18.269 8.57242C18.179 8.62427 18.0892 8.67679 17.9998 8.72974C17.0952 8.19405 16.1654 7.71636 15.2134 7.29581C16.1053 5.48306 16.8768 4.41497 17.7735 3.17351L17.9998 2.85974ZM12.4009 8.4608C12.0252 9.43111 11.7055 10.4263 11.4447 11.4449C10.4261 11.7057 9.431 12.0254 8.46036 12.4012C7.7223 10.2333 7.48565 8.55418 7.33854 7.51092L7.3102 7.31053L7.52927 7.34129C8.50299 7.4773 10.216 7.7168 12.4009 8.4608ZM2.85936 18.0002L3.24487 17.7212C4.30088 16.9541 5.43978 16.1268 7.29548 15.2139C7.71603 16.1657 8.1935 17.0956 8.7293 18.0002C8.1935 18.9048 7.71603 19.8347 7.29548 20.7866C5.48229 19.8945 4.4142 19.123 3.17263 18.2263L2.85936 18.0002ZM7.3102 28.6897C7.44193 27.768 7.65682 25.9594 8.46036 23.5991C9.43078 23.9748 10.426 24.2945 11.4446 24.5553C11.7054 25.574 12.0251 26.5691 12.4009 27.5397C10.2362 28.2766 8.56781 28.5122 7.49752 28.6631L7.3102 28.6897ZM17.9998 33.1407C17.9076 33.0126 17.8146 32.8845 17.7206 32.7551C16.9537 31.6991 16.1264 30.5603 15.2134 28.7047C16.1654 28.2841 17.0951 27.8064 17.9998 27.2707C18.9044 27.8064 19.8343 28.2841 20.7863 28.7047C19.8947 30.5165 19.1237 31.5842 18.2277 32.825L17.9998 33.1407ZM22.6542 23.4457C22.3916 24.5857 22.0494 25.6946 21.6329 26.7711C20.5773 26.3046 19.551 25.7623 18.5592 25.142C18.217 24.928 17.7827 24.928 17.4406 25.142C16.4487 25.7623 15.4226 26.3046 14.3669 26.7711C13.9503 25.6948 13.6081 24.5857 13.3455 23.4457C13.2549 23.0524 12.9478 22.7452 12.5545 22.6547C11.4146 22.3921 10.3055 22.0498 9.22907 21.6332C9.69566 20.5776 10.2378 19.5513 10.8582 18.5597C11.0723 18.2175 11.0723 17.7831 10.8582 17.441C10.2378 16.4492 9.69566 15.4231 9.22907 14.3673C10.3054 13.9507 11.4146 13.6086 12.5545 13.346C12.9478 13.2552 13.2549 12.9483 13.3455 12.555C13.6081 11.415 13.9505 10.3058 14.3669 9.2294C15.4225 9.6961 16.4487 10.2382 17.4406 10.8587C17.7827 11.0727 18.217 11.0727 18.5592 10.8587C19.551 10.2382 20.5772 9.6961 21.6329 9.2294C22.0494 10.3058 22.3917 11.415 22.6542 12.555C22.7448 12.9483 23.0519 13.2552 23.4452 13.346C24.5851 13.6086 25.6942 13.9507 26.7707 14.3673C26.304 15.4231 25.7619 16.4492 25.1415 17.441C24.9275 17.7831 24.9275 18.2173 25.1415 18.5597C25.7619 19.5513 26.3041 20.5776 26.7707 21.6332C25.6943 22.0498 24.5852 22.3921 23.4452 22.6547C23.0519 22.7452 22.7448 23.0524 22.6542 23.4457ZM23.5987 27.5397C23.9744 26.5691 24.2941 25.574 24.555 24.5553C25.5736 24.2945 26.5686 23.9748 27.5392 23.5991C28.2774 25.7674 28.5141 27.4467 28.661 28.4893L28.6894 28.6897L28.4733 28.6592C27.5001 28.5234 25.7859 28.2843 23.5987 27.5397ZM28.7041 20.7866C28.2837 19.8347 27.8061 18.9048 27.2703 18.0002C27.8061 17.0956 28.2837 16.1657 28.7041 15.2139C30.5163 16.1053 31.5844 16.8768 32.8253 17.7733L33.1403 18.0002L32.9051 18.1701L32.754 18.2797C31.6981 19.0468 30.5594 19.8738 28.7041 20.7866ZM17.9991 19.0549C18.5816 19.0549 19.0538 18.5827 19.0538 18.0002C19.0538 17.4177 18.5816 16.9455 17.9991 16.9455C17.4166 16.9455 16.9444 17.4177 16.9444 18.0002C16.9444 18.5827 17.4166 19.0549 17.9991 19.0549ZM12.7257 18.0002C12.7257 15.0924 15.0914 12.7268 17.9991 12.7268C20.907 12.7268 23.2726 15.0926 23.2727 18.0002C23.2727 20.9081 20.907 23.2737 17.9991 23.2737C15.0914 23.2737 12.7257 20.9081 12.7257 18.0002ZM14.8352 18.0002C14.8352 19.7451 16.2545 21.1645 17.9991 21.1645C19.7439 21.1645 21.1633 19.7449 21.1633 18.0002C21.1633 16.2556 19.7439 14.8362 17.9991 14.8362C16.2545 14.8362 14.8352 16.2556 14.8352 18.0002Z" fill="url(#paint0_linear_128_846)"/>
<defs>
<linearGradient id="paint0_linear_128_846" x1="-0.29752" y1="-1.89753e-06" x2="40.671" y2="6.48332" gradientUnits="userSpaceOnUse">
<stop stop-color="#67ADD7"/>
<stop offset="1" stop-color="#67ADD7"/>
</linearGradient>
</defs>
</svg>
